<svg width="100%" height="100%" viewBox="0 0 80 32" fill="none" xmlns="http://www.w3.org/2000/svg">
<g clip-path="url(#clip0_2480_4189)">
<path d="M21.3031 8.78455C20.5758 9.25889 19.9466 9.86548 19.4492 10.5719C19.0221 11.2108 18.731 11.9287 18.5939 12.6819C18.4567 13.4352 18.4762 14.208 18.6513 14.9536C18.8263 15.6992 19.1533 16.4018 19.6122 17.019C20.0711 17.6361 20.6525 18.1547 21.3209 18.5434C22.0091 18.9325 22.0091 18.9325 21.7214 19.6579C21.0279 21.4234 20.0047 23.0448 18.7047 24.4379C17.453 25.7835 16.0736 26.0439 14.371 25.2921C13.404 24.865 12.4074 24.5403 11.3514 24.7275C10.5922 24.8881 9.84872 25.1142 9.12966 25.4032C7.96393 25.8362 6.84269 25.9006 5.80747 25.1107C5.43356 24.8257 5.08884 24.5053 4.77819 24.1541C2.88959 22.003 1.60421 19.4021 1.04962 16.6098C0.664004 14.6644 0.601721 12.7132 1.29879 10.8118C2.15307 8.47153 3.75187 6.9416 6.24945 6.42382C7.21811 6.22156 8.22587 6.30813 9.14449 6.67248C9.5835 6.84507 10.0344 6.99133 10.4674 7.17269C10.8031 7.31804 11.1657 7.39309 11.5323 7.39309C11.8989 7.39309 12.2615 7.31804 12.5972 7.17269C13.5939 6.77778 14.5846 6.35947 15.6702 6.2483C17.7169 6.05231 20.1166 6.92112 21.3031 8.78455Z" fill="white"/>
<path d="M32.6639 17.4321V25.5235H28.9561V1.82847H29.2942C32.1922 1.82847 35.0903 1.82847 37.9883 1.82847C39.7646 1.78173 41.5056 2.32349 42.933 3.36719C44.6356 4.64555 45.5344 6.37443 45.7954 8.44555C46.0547 10.1535 45.7686 11.8987 44.9767 13.439C44.4725 14.4217 43.7434 15.2752 42.8471 15.9321C41.9508 16.5891 40.9119 17.0315 39.8125 17.2244C39.1401 17.355 38.457 17.4246 37.7717 17.4321C36.2115 17.4614 34.6512 17.4321 33.088 17.4321H32.6639ZM32.6639 14.3781C34.4881 14.343 36.2767 14.3781 38.0535 14.2494C38.7025 14.221 39.3352 14.0404 39.8991 13.7224C40.463 13.4044 40.9417 12.9582 41.2956 12.421C42.0313 11.3065 42.1232 10.0603 41.9868 8.78195C41.9232 8.08209 41.6847 7.40868 41.2927 6.82199C40.9145 6.26746 40.4066 5.81081 39.8119 5.49056C39.2172 5.17031 38.553 4.99587 37.8756 4.98197C36.2115 4.89129 34.5415 4.93223 32.8745 4.92053C32.8069 4.92847 32.7403 4.94318 32.6757 4.96442L32.6639 14.3781Z" fill="white"/>
<path d="M58.1735 15.27C58.1674 14.5481 58.1179 13.8272 58.0252 13.1111C57.9513 12.6989 57.7651 12.3143 57.4866 11.9985C57.2081 11.6826 56.8478 11.4473 56.4442 11.3179C55.2658 10.8559 53.9507 10.8675 52.7809 11.3501C52.3708 11.5078 52.0042 11.7583 51.7105 12.0815C51.4168 12.4047 51.2042 12.7915 51.0901 13.2106C51.0693 13.275 51.0426 13.3393 51.0159 13.4125H47.6819C47.6957 12.5821 47.9432 11.7719 48.3967 11.0722C49.3934 9.49546 50.918 8.67052 52.7008 8.31656C54.527 7.92378 56.4297 8.06406 58.1765 8.72025C60.4071 9.5686 61.7122 11.3238 61.7359 13.6933C61.7715 17.5664 61.7359 21.4395 61.7359 25.3126C61.7359 25.3799 61.7359 25.4472 61.7122 25.5349H58.2981V22.6828C58.2252 22.7475 58.1577 22.8179 58.0964 22.8934C57.6573 23.6173 57.0608 24.2361 56.3498 24.705C55.6389 25.174 54.8312 25.4814 53.9851 25.6052C52.4041 25.9287 50.758 25.6915 49.337 24.9353C46.6882 23.5048 46.261 20.3396 47.3556 18.3679C48.0171 17.1715 49.1353 16.5308 50.3901 16.1067C51.4627 15.7776 52.5749 15.5907 53.6974 15.5509L58.1735 15.27ZM58.1112 17.7858C58.0014 17.7858 57.9095 17.7858 57.8146 17.7858C56.3759 17.8794 54.9343 17.9408 53.5017 18.0783C52.8887 18.1493 52.2893 18.3069 51.7219 18.5464C51.3566 18.681 51.0402 18.9198 50.8131 19.2324C50.5859 19.545 50.4583 19.9172 50.4464 20.3016C50.3932 20.7157 50.4667 21.1362 50.6575 21.5088C50.8483 21.8815 51.1477 22.1895 51.5172 22.3932C52.276 22.8112 53.1475 22.987 54.0118 22.8963C55.1841 22.8736 56.3013 22.4014 57.1264 21.5799C58.212 20.5063 58.1942 19.1724 58.1112 17.7858Z" fill="white"/>
<path d="M63.2073 8.32521C64.4739 8.32521 65.69 8.32521 66.9092 8.32521C66.9645 8.3399 67.0155 8.36711 67.0582 8.4047C67.101 8.44228 67.1342 8.48918 67.1553 8.54168C68.2568 12.0208 69.3524 15.501 70.442 18.9821C70.7771 20.0499 71.1064 21.1205 71.4386 22.2C71.4672 22.2643 71.4999 22.3269 71.5365 22.3872C71.667 22.001 71.7797 21.6793 71.8835 21.3516C72.6409 18.9392 73.3963 16.5258 74.1498 14.1115C74.7015 12.3417 75.268 10.5748 75.802 8.80203C75.9087 8.44515 76.0482 8.30181 76.4486 8.31644C77.4037 8.35154 78.3648 8.31644 79.3229 8.31644H79.7471C79.6284 8.66163 79.5305 8.96877 79.4208 9.27301C77.8843 13.5167 76.3467 17.7603 74.8083 22.004C74.1112 23.9201 73.4171 25.842 72.6815 27.7464C72.3253 28.6882 71.7896 29.554 71.1034 30.2972C69.9851 31.4995 68.5317 31.8945 66.9507 31.9764C66.2922 32.0086 65.6307 31.9764 64.9455 31.9764V29.0862C65.0968 29.0862 65.2421 29.0862 65.3904 29.0862C65.8966 29.0961 66.403 29.0737 66.9062 29.0189C68.0927 28.8199 68.6355 27.9424 69.0864 26.939C69.5105 26.0029 69.383 25.1838 69.036 24.2418C67.7575 20.8982 66.5473 17.5136 65.3163 14.1671C64.634 12.3066 63.9548 10.4441 63.2785 8.57971C63.2577 8.51535 63.2429 8.44807 63.2073 8.32521Z" fill="white"/>
<path d="M16.6165 0.00878906C16.5975 0.498626 16.5499 0.986981 16.4742 1.47145C16.0233 3.46358 14.908 4.94379 12.9354 5.69267C12.5181 5.81405 12.09 5.89633 11.657 5.9384C11.39 5.98228 11.2832 5.87698 11.2862 5.59322C11.3099 3.7649 12.1197 2.32272 13.5257 1.20525C14.3013 0.584882 15.2314 0.180827 16.2191 0.0351247C16.3169 0.00879692 16.4178 0.00878906 16.6165 0.00878906Z" fill="white"/>
</g>
<defs>
<clipPath id="clip0_2480_4189">
<rect width="79" height="32" fill="white" transform="translate(0.75)"/>
</clipPath>
</defs>
</svg>
