<svg width="100%" height="100%" viewBox="0 0 131 136" fill="currentColor" xmlns="http://www.w3.org/2000/svg">
<path d="M15.6085 60.2704C15.6085 56.5895 15.4194 53.0936 15.6085 49.6183C15.724 45.6395 16.1808 41.6773 16.9743 37.7734C18.4963 31.0206 21.5026 24.6733 25.7843 19.1725C30.0659 13.6716 35.5202 9.14928 41.7679 5.91976C49.8799 1.48239 59.1417 -0.533563 68.4106 0.12069C75.2526 0.459229 81.9456 2.2012 88.0556 5.23364C94.1657 8.26608 99.5564 12.5213 103.878 17.7235C110.004 24.6296 113.824 33.2048 114.825 42.2975C115.372 47.603 115.246 52.9908 115.414 58.3374C115.414 58.9132 115.414 59.4684 115.414 60.2704C117.116 60.2704 118.733 60.2704 120.33 60.2704C122.61 60.2983 124.822 61.0372 126.643 62.3797C128.465 63.7222 129.801 65.5983 130.458 67.7352C131.206 70.0363 131.121 72.5193 130.218 74.7664C129.315 77.0135 127.648 78.8877 125.499 80.0736C125.08 80.2308 124.723 80.5153 124.481 80.8854C124.239 81.2554 124.125 81.6916 124.154 82.13C123.742 90.3362 121.398 98.3381 117.305 105.511C113.206 113.119 107.396 119.716 100.313 124.807C93.2307 129.897 85.0595 133.347 76.4161 134.897C65.2959 137.109 53.752 135.977 43.3018 131.648C31.2378 126.881 21.1545 118.294 14.663 107.259C10.0921 99.7579 7.4127 91.2988 6.84665 82.5824C6.87113 82.0047 6.7258 81.4322 6.42786 80.9328C6.12993 80.4335 5.69191 80.0282 5.16574 79.7652C3.17935 78.6177 1.63397 76.8623 0.768169 74.7699C-0.0976344 72.6776 -0.235729 70.3645 0.375099 68.1876C0.972383 65.9048 2.32911 63.8814 4.23135 62.4367C6.13359 60.992 8.4731 60.2082 10.8809 60.2088C12.4148 60.2499 13.9066 60.2704 15.6085 60.2704ZM33.6575 60.2704H97.3016C97.3016 56.2605 97.3016 52.3739 97.3016 48.4873C97.3282 42.7838 95.6403 37.1986 92.448 32.4268C85.4091 21.9186 75.3445 16.8393 62.6115 18.032C49.8784 19.2247 40.9065 26.1342 35.8847 37.7117C32.6909 44.8474 33.9516 52.5384 33.6575 60.1882V60.2704ZM57.2115 81.657H13.4233C14.002 91.2033 17.3248 100.395 23.0087 108.174C28.6927 115.953 36.5067 122.001 45.5501 125.623C54.4892 129.298 64.305 130.435 73.8737 128.904C83.4424 127.373 92.3772 123.235 99.6549 116.965L91.3974 108.74C89.2962 110.796 87.3632 112.853 85.283 114.724C84.9172 115.119 84.4564 115.419 83.9424 115.596C83.4285 115.773 82.8775 115.822 82.3393 115.738C81.8012 115.655 81.2928 115.441 80.8603 115.117C80.4277 114.792 80.0846 114.368 79.862 113.881C79.5517 113.23 79.4721 112.496 79.6357 111.796C79.7994 111.096 80.197 110.469 80.7655 110.015L86.7118 104.36L78.3071 95.8668C77.4246 96.7921 76.5632 97.7792 75.6387 98.6635C75.136 99.1824 74.4734 99.5256 73.7524 99.6407C73.0313 99.7559 72.2916 99.6365 71.6465 99.301C71.1748 99.0544 70.7714 98.6993 70.4712 98.2663C70.1709 97.8332 69.9826 97.3352 69.9227 96.8152C69.8627 96.2952 69.9328 95.7687 70.1269 95.2811C70.3211 94.7934 70.6335 94.3593 71.0371 94.016C71.9406 93.0495 72.9072 92.1447 73.7686 91.3015L65.6161 83.2405L57.2115 91.281L57.8208 91.9185L68.0955 101.954C68.5999 102.336 68.9933 102.841 69.2365 103.418C69.4798 103.995 69.5645 104.625 69.4823 105.244C69.4117 105.81 69.176 106.343 68.8033 106.781C68.4306 107.219 67.9368 107.542 67.3811 107.712C66.7611 107.938 66.0871 107.983 65.4415 107.841C64.7959 107.698 64.2067 107.375 63.7461 106.91C61.9391 105.182 60.1531 103.434 58.3671 101.666C56.5811 99.8973 54.3959 97.697 52.1687 95.4966C51.2022 96.5659 50.4247 97.553 49.5843 98.3345C49.294 98.7049 48.9275 99.0115 48.5085 99.2344C48.0894 99.4573 47.6272 99.5915 47.1517 99.6283C46.6763 99.6652 46.1982 99.6038 45.7485 99.4482C45.2989 99.2926 44.8876 99.0463 44.5415 98.7252C44.2154 98.3974 43.9627 98.0066 43.7997 97.5779C43.6366 97.1491 43.5666 96.6918 43.5943 96.2351C43.622 95.7784 43.7467 95.3324 43.9604 94.9255C44.1742 94.5186 44.4722 94.1598 44.8356 93.872C45.6971 92.9878 46.6847 92.2064 47.9034 91.096C47.1057 90.5135 46.3411 89.8888 45.6131 89.2246C45.2721 88.9292 44.9969 88.5682 44.8046 88.1642C44.6122 87.7602 44.5068 87.3218 44.495 86.8763C44.4832 86.4307 44.5652 85.9875 44.7358 85.5743C44.9065 85.1611 45.1622 84.7867 45.487 84.4743C45.8234 84.1753 46.2171 83.9447 46.6454 83.7961C47.0737 83.6475 47.5279 83.5837 47.9816 83.6086C48.4353 83.6335 48.8793 83.7465 49.288 83.941C49.6966 84.1356 50.0616 84.4077 50.3617 84.7416C50.992 85.338 51.5383 86.0166 52.0636 86.5924L57.2115 81.657ZM65.6161 66.707H10.9859C10.4132 66.6733 9.83954 66.7547 9.30023 66.9463C8.76091 67.1378 8.26743 67.4355 7.8501 67.8208C7.43277 68.2061 7.10048 68.671 6.87371 69.1868C6.64693 69.7025 6.53045 70.2583 6.53149 70.8198C6.51482 71.3973 6.62266 71.9718 6.84799 72.5058C7.07332 73.0398 7.41108 73.5214 7.83926 73.9191C8.26745 74.3168 8.77647 74.6218 9.33312 74.8141C9.88977 75.0065 10.4816 75.0818 11.07 75.0354H64.5236C82.8737 75.0354 101.231 75.0354 119.595 75.0354C120.617 75.0027 121.613 74.7199 122.495 74.2129C123.229 73.7219 123.786 73.0153 124.084 72.1949C124.383 71.3745 124.407 70.4826 124.154 69.6476C123.833 68.7445 123.221 67.9678 122.41 67.4338C121.6 66.8999 120.634 66.6376 119.658 66.6864L65.6161 66.707ZM27.1439 60.1265C27.1439 56.4455 27.0388 52.9086 27.1439 49.3715C27.1776 46.6137 27.4376 43.863 27.9213 41.1459C29.2824 34.0512 32.8315 27.5348 38.0909 22.4738C42.5639 17.9218 48.16 14.5749 54.3394 12.7559C60.5188 10.9369 67.0729 10.7072 73.3694 12.089C81.5712 13.6338 88.9858 17.8789 94.381 24.1189C100.404 30.714 103.765 39.2308 103.836 48.076C103.836 51.6336 103.836 55.1706 103.836 58.7076C103.836 59.1806 103.836 59.6536 103.836 60.106H108.795C109.028 53.9264 108.768 47.7384 108.018 41.5983C106.502 32.7546 102.075 24.6379 95.4106 18.4843C88.0788 11.4215 78.3672 7.21747 68.0955 6.66003C61.3684 6.18274 54.6229 7.2972 48.4286 9.90918C39.641 13.5178 32.3352 19.8936 27.6692 28.0261C24.6581 33.0543 22.8212 38.6724 22.2902 44.4773C21.891 48.878 22.038 53.3198 21.954 57.7411C21.954 58.5637 21.954 59.3862 21.954 60.2704L27.1439 60.1265ZM91.5235 99.1981L99.802 91.1165L91.5865 83.1582L83.3079 91.1165L91.5235 99.1981ZM104.698 95.8668L96.5452 103.887L104.95 112.256C107.24 109.048 109.509 105.84 111.758 102.715L104.698 95.8668ZM114.384 96.0313H114.867L117.809 83.4256H117.494L109.593 91.096L114.384 96.0313ZM83.413 81.6365H73.8317L78.4332 86.3662L83.413 81.6365ZM104.425 86.0783L109.005 81.6159H99.6129L104.425 86.0783Z" fill="currentColor"/>
<path d="M63.1367 120.852C46.0752 119.228 33.4682 111.105 25.9461 95.7639C25.5862 95.0565 25.3653 94.2892 25.2947 93.5019C25.2449 92.8399 25.4255 92.1808 25.8069 91.632C26.1884 91.0832 26.7485 90.6768 27.3959 90.479C28.0369 90.2466 28.7384 90.2275 29.3916 90.4245C30.0449 90.6215 30.6137 91.0237 31.0099 91.5689C31.392 92.1214 31.7225 92.7064 31.9974 93.3168C34.7473 99.3274 39.1517 104.471 44.7178 108.171C50.2839 111.872 56.7923 113.984 63.5149 114.272C64.3343 114.272 65.1538 114.272 65.9522 114.477C66.6935 114.592 67.3703 114.957 67.8654 115.509C68.3604 116.062 68.6425 116.766 68.6627 117.5C68.6875 118.234 68.4457 118.953 67.9803 119.529C67.5148 120.105 66.8558 120.501 66.1203 120.646C65.1312 120.777 64.1347 120.846 63.1367 120.852Z" fill="currentColor"/>
</svg>

