<svg width="100%" height="100%" viewBox="0 0 57 61" fill="none" xmlns="http://www.w3.org/2000/svg">
<g clip-path="url(#clip0_2480_4195)">
<path d="M43.9519 14.5478C42.3771 14.5478 40.8017 14.5478 39.227 14.5478C37.9936 14.5478 36.9484 14.1251 36.2087 13.1037C35.8349 12.586 35.5592 12.0182 35.519 11.3631C35.4188 9.72605 35.7595 8.17493 36.4054 6.67594C36.9132 5.49746 37.6748 4.49227 38.5211 3.54694C38.6767 3.36624 38.8672 3.2188 39.0813 3.11345C39.2953 3.00809 39.5285 2.94701 39.7667 2.93385C40.005 2.92069 40.2435 2.95574 40.4679 3.03688C40.6922 3.11802 40.8979 3.24359 41.0725 3.40606C41.643 3.92733 42.1684 4.4972 42.7149 5.04453C43.7996 6.12932 44.8898 7.20989 45.9709 8.29891C47.2671 9.6056 48.5548 10.9207 49.8495 12.2295C50.054 12.4265 50.1944 12.6804 50.2524 12.9582C50.3104 13.236 50.2833 13.5248 50.1746 13.787C49.973 14.2928 49.4835 14.6027 48.8559 14.6041C47.2226 14.6074 45.5891 14.6074 43.9554 14.6041L43.9519 14.5478Z" fill="white"/>
<path d="M35.7968 37.0291C35.7968 35.4089 35.7883 33.7888 35.7968 32.1722C35.8088 30.4583 36.7502 29.1263 38.3045 28.6001C39.0499 28.3479 39.8172 28.4226 40.5746 28.5001C42.077 28.6479 43.5223 29.1519 44.7903 29.9702C45.5216 30.4421 46.1782 31.0416 46.8192 31.6361C47.5033 32.2701 47.3911 33.4859 46.7628 34.1016C45.339 35.5104 43.9624 36.9594 42.5569 38.3844C41.5372 39.4185 40.5034 40.4384 39.4759 41.4655C38.9956 41.9459 38.5274 42.4397 38.0344 42.9074C37.5979 43.3216 37.0923 43.4463 36.5126 43.1948C36.0542 42.9962 35.7122 42.5186 35.7122 42.0227C35.7122 40.357 35.7122 38.6913 35.7122 37.0256L35.7968 37.0291Z" fill="white"/>
<path d="M26.4627 43.3608C24.4538 43.3608 22.4447 43.3608 20.4353 43.3608C19.7131 43.3608 19.2914 43.079 19.0658 42.4761C18.869 41.9456 19.0912 41.2891 19.5502 40.8559C20.2731 40.1733 20.9712 39.464 21.675 38.7617C22.1687 38.2735 22.6447 37.7755 23.1341 37.2824C24.2272 36.1885 25.2984 35.0713 26.4232 34.0111C28.0389 32.4875 30.3844 32.7009 31.7976 34.419C32.4873 35.2579 33.1312 36.1201 33.5353 37.1296C33.7912 37.7692 34.0289 38.4285 34.1615 39.1019C34.3145 39.8768 34.373 40.6784 34.4161 41.4709C34.4809 42.5895 33.7616 43.3594 32.6305 43.3728C30.5748 43.3925 28.5184 43.3784 26.4627 43.3784V43.3608Z" fill="white"/>
<path d="M13.5622 28.8231C15.2653 28.8231 16.9712 28.7568 18.6701 28.8449C19.9394 28.9111 20.8929 29.588 21.4867 30.7686C22.0657 31.9204 21.9267 33.0862 21.6982 34.2689C21.3747 35.9787 20.6595 37.5907 19.6087 38.9786C19.3113 39.3573 18.9809 39.709 18.6214 40.0296C18.0234 40.5853 16.8527 40.5325 16.2336 39.9168C15.436 39.1237 14.6652 38.3037 13.8775 37.5C13.1149 36.7228 12.3493 35.948 11.5806 35.1755C10.5157 34.1033 9.45039 33.0319 8.38458 31.9612C8.03903 31.609 7.68713 31.266 7.37472 30.8877C7.01366 30.4509 7.01859 29.9494 7.28516 29.4704C7.53269 29.0266 7.90363 28.7484 8.44735 28.7505C10.1504 28.7554 11.8535 28.7505 13.5566 28.7505L13.5622 28.8231Z" fill="white"/>
<path d="M21.5777 6.3961C21.5777 7.98032 21.5847 9.56595 21.5777 11.1481C21.5713 12.0349 21.3661 12.8612 20.7857 13.5712C19.9134 14.6321 18.7808 15.0287 17.4444 14.9258C15.9564 14.8103 14.5249 14.4785 13.2132 13.7403C12.1553 13.1465 11.154 12.4787 10.3881 11.5165C10.0609 11.1051 9.96497 10.1548 10.2887 9.75544C10.8528 9.05807 11.4727 8.40015 12.094 7.74927C12.9022 6.90398 13.7322 6.07348 14.5573 5.24157C15.987 3.80128 17.4188 2.36287 18.8527 0.926336C18.9938 0.785453 19.1609 0.672045 19.3012 0.531867C19.718 0.115559 20.199 -0.0697013 20.7723 0.140214C21.4345 0.383236 21.6813 0.893229 21.6771 1.5744C21.6679 3.18187 21.6771 4.78863 21.6771 6.3961H21.5777Z" fill="white"/>
<path d="M30.8082 0C32.8175 0 34.8267 0 36.8356 0C37.6113 0 38.1233 0.297964 38.3031 0.860085C38.483 1.42221 38.3737 1.94277 37.9632 2.35837C37.2213 3.10646 36.4449 3.82144 35.696 4.56389C34.947 5.30634 34.2418 6.05584 33.4992 6.78631C32.5402 7.73093 31.6051 8.70724 30.5839 9.58212C29.244 10.7331 27.0769 10.4887 25.8548 9.20033C25.1783 8.49805 24.606 7.70269 24.1552 6.83844C23.3026 5.17532 22.8365 3.4157 22.9564 1.52364C23.0029 0.786125 23.8026 0.062693 24.4295 0.0443783C25.4747 0.0183151 26.5205 0.0183156 27.5656 0.0140891C28.6467 0.00915822 29.7278 0.0140891 30.8096 0.0140891L30.8082 0Z" fill="white"/>
<path d="M7.10609 19.5987C7.10609 17.5799 7.12866 15.5603 7.09763 13.5408C7.07788 12.2876 8.23654 11.6699 9.11523 12.1749C9.40437 12.3405 9.65401 12.5905 9.89096 12.8335C11.3014 14.3037 12.7026 15.7921 14.118 17.2572C14.8345 18.0004 15.5735 18.721 16.3041 19.4487C17.2844 20.4236 17.5256 21.5915 17.2315 22.9088C17.0199 23.8463 16.4466 24.5374 15.6948 25.0678C14.9128 25.62 14.1152 26.1772 13.2541 26.5858C11.8863 27.2269 10.3863 27.5363 8.87617 27.4888C7.79085 27.4642 7.07788 26.7337 7.07788 25.6574V19.5994L7.10609 19.5987Z" fill="white"/>
<path d="M50.2818 23.848C50.2818 25.902 50.2868 27.9554 50.2776 30.0095C50.2776 30.5392 50.0625 30.9773 49.5484 31.1943C49.0907 31.388 48.5985 31.4845 48.186 31.1238C47.6592 30.6603 47.1662 30.1574 46.6719 29.6594C45.5661 28.5473 44.465 27.4306 43.3687 26.3092C42.8186 25.7457 42.2685 25.1892 41.7298 24.6186C41.3292 24.1959 40.8835 23.7951 40.5697 23.3112C39.648 21.8862 39.9597 19.9237 41.2185 18.7903C42.2107 17.8964 43.2982 17.1476 44.5379 16.6432C45.7664 16.1445 47.052 15.8684 48.3785 15.8909C48.7783 15.8987 49.2078 16.0551 49.5632 16.253C50.0971 16.551 50.2896 17.0983 50.2917 17.6893C50.3002 19.7426 50.2952 21.796 50.2952 23.8494L50.2818 23.848Z" fill="white"/>
<path d="M46.2524 54.5009C46.2524 53.5274 46.2601 52.5532 46.2481 51.579C46.2439 51.255 46.3391 51.0859 46.6917 51.1338C46.8087 51.1493 46.9273 51.1493 47.0443 51.1338C47.4174 51.0838 47.6205 51.2141 47.6458 51.6149C47.6628 51.8861 47.8059 51.8875 47.9928 51.7213C49.1444 50.7006 50.5471 50.7062 51.6345 51.7488C51.8411 51.9467 51.9603 51.8664 52.1282 51.7157C53.0301 50.9084 54.0851 50.7858 55.1867 51.1521C56.0611 51.4409 56.6203 52.1298 56.6782 53.0266C56.7769 54.5467 56.7445 56.0753 56.7487 57.5996C56.7487 57.6982 56.5837 57.8673 56.4786 57.8814C56.1741 57.9134 55.8675 57.9209 55.5618 57.9039C55.2431 57.8969 55.2339 57.6581 55.2339 57.4263C55.2339 56.4289 55.241 55.4314 55.2339 54.434C55.2351 54.128 55.2182 53.8222 55.1831 53.5182C55.095 52.7983 54.5393 52.2461 53.741 52.2637C53.0555 52.2792 52.4864 52.7053 52.3249 53.4379C52.2596 53.7476 52.2266 54.0632 52.2262 54.3797C52.2191 55.4364 52.2262 56.493 52.2403 57.5496C52.2438 57.8046 52.143 57.9194 51.8877 57.9166C51.6761 57.9166 51.4646 57.9208 51.253 57.9215C50.796 57.9215 50.7311 57.8624 50.7283 57.3911C50.722 56.264 50.7241 55.137 50.7149 54.0099C50.7114 53.5443 50.6197 53.1139 50.2918 52.742C49.923 52.3193 49.466 52.2158 48.9568 52.2982C48.4251 52.3834 48.0718 52.7378 47.899 53.2266C47.7965 53.5383 47.7441 53.8643 47.7439 54.1924C47.7255 55.3067 47.7291 56.4211 47.7439 57.5355C47.7439 57.8335 47.6233 57.9349 47.3454 57.925C47.1226 57.9173 46.8983 57.9251 46.6762 57.9363C46.3567 57.9546 46.2382 57.8088 46.2418 57.4947C46.2516 56.4979 46.2418 55.5005 46.2418 54.503L46.2524 54.5009Z" fill="white"/>
<path d="M2.33468 52.2535C2.68728 52.0351 2.96937 51.7801 3.30152 51.6695C4.62308 51.2307 5.8847 51.3589 6.9538 52.3091C7.47072 52.7684 7.74434 53.4136 7.83673 54.1026C7.9693 55.0838 7.85154 56.0305 7.22037 56.8371C6.41573 57.8662 5.30573 58.2156 4.0434 58.1564C3.01873 58.1093 2.15908 57.6951 1.50465 56.9019C1.00042 56.2898 0.81495 55.5452 0.778985 54.7753C0.734068 54.0493 0.739252 53.3211 0.794499 52.5958C0.935541 51.0926 1.45105 49.7662 2.91013 49.0597C3.43833 48.8033 4.03847 48.6617 4.61674 48.5497C5.35298 48.4088 6.10544 48.3552 6.84943 48.2545C7.17171 48.2108 7.29371 48.325 7.28525 48.6567C7.26198 49.526 7.27185 49.5182 6.40092 49.6338C5.63435 49.7359 4.86145 49.8155 4.10828 49.9796C3.03636 50.2142 2.50181 51.0362 2.31987 52.0069C2.31528 52.0894 2.32025 52.1721 2.33468 52.2535ZM2.30224 54.7788C2.20915 55.8854 3.2451 56.7885 4.29305 56.7828C5.5462 56.7765 6.42419 55.8756 6.3988 54.74C6.372 53.5468 5.48767 52.674 4.30645 52.6874C3.14779 52.7015 2.29095 53.5961 2.30224 54.7795V54.7788Z" fill="white"/>
<path d="M39.7425 57.1315C39.7065 57.2766 39.6586 57.3809 39.6586 57.4837C39.6586 58.527 39.6586 59.5709 39.6762 60.6141C39.6811 60.9142 39.5535 61.0135 39.2756 60.9966C39.0641 60.984 38.8525 60.9861 38.6409 60.9839C38.2178 60.979 38.1593 60.9269 38.1586 60.4909C38.1586 57.5112 38.1586 54.5315 38.1494 51.5519C38.1494 51.2321 38.2425 51.0898 38.5725 51.1215C38.6902 51.1237 38.8079 51.1199 38.9251 51.1102C39.4378 51.1102 39.4512 51.1172 39.5655 51.6329C39.6198 51.8766 39.7213 51.9668 39.9519 51.7914C40.7404 51.1912 41.6162 50.9165 42.6183 51.0355C44.0083 51.2004 44.9159 51.9301 45.3602 53.2551C45.7283 54.3526 45.595 55.4233 45.1049 56.4299C44.5407 57.5894 42.9766 58.2959 41.6543 58.0085C41.1508 57.8993 40.6797 57.6338 40.1995 57.4253C40.0514 57.3654 39.9265 57.2548 39.7425 57.1315ZM41.8468 52.3943C40.643 52.3239 39.672 53.3326 39.6727 54.5506C39.6703 54.8294 39.7241 55.1059 39.8309 55.3636C39.9376 55.6213 40.0951 55.855 40.2941 56.0507C40.493 56.2463 40.7293 56.4001 40.9889 56.5028C41.2485 56.6054 41.5261 56.6549 41.8052 56.6483C43.167 56.6384 43.9963 55.8636 44.0217 54.5442C44.0436 53.3657 43.2001 52.3605 41.8468 52.3943Z" fill="white"/>
<path d="M36.8743 54.5329C36.8743 55.5304 36.863 56.5285 36.8799 57.526C36.8863 57.8782 36.7389 57.9888 36.4194 57.9627C36.2904 57.9521 36.1613 57.9514 36.0323 57.9493C35.4815 57.9409 35.4857 57.9402 35.3658 57.4076C35.2953 57.104 35.1543 57.2146 34.997 57.3449C33.8687 58.2607 32.1804 58.3649 30.9773 57.5647C30.2185 57.0597 29.7488 56.3602 29.6374 55.4325C29.5232 54.4752 29.5204 53.5446 29.9844 52.655C30.4315 51.797 31.1564 51.3166 32.0648 51.1264C33.1599 50.8989 34.1889 51.0813 35.0746 51.8238C35.277 51.9928 35.4089 51.9449 35.4674 51.6829C35.5901 51.1299 35.5943 51.1306 36.1726 51.1271C36.9004 51.1271 36.8863 51.1271 36.8729 51.8618C36.8574 52.7529 36.8694 53.6447 36.8694 54.5386L36.8743 54.5329ZM35.3489 54.6034C35.3792 53.4129 34.5027 52.4098 33.2446 52.407C31.8602 52.407 31.0401 53.3439 31.0514 54.5203C31.0634 55.7882 31.7114 56.6335 33.2079 56.6863C34.4075 56.7215 35.3334 55.8086 35.3482 54.6005L35.3489 54.6034Z" fill="white"/>
<path d="M12.9691 55.1054C12.2287 55.1054 11.4882 55.0998 10.7484 55.1054C10.2788 55.1096 10.2075 55.2611 10.3958 55.7013C10.96 57.015 12.8507 57.1672 13.6927 56.3543C14.1588 55.9049 14.7033 56.1155 15.223 56.1085C15.2427 56.1085 15.3182 56.3494 15.278 56.4374C15.0305 56.9791 14.6059 57.3743 14.0954 57.654C12.8697 58.3239 11.6074 58.3372 10.3902 57.6666C9.32392 57.0792 8.79008 56.1226 8.75411 54.899C8.72097 53.7642 8.96567 52.721 9.86199 51.9475C10.4262 51.4587 11.0714 51.1332 11.8641 51.1114C12.735 51.0874 13.5333 51.2001 14.2576 51.7383C14.8177 52.1527 15.2213 52.744 15.4028 53.4162C15.5077 53.8115 15.5736 54.2161 15.5996 54.6243C15.6355 55.0469 15.5686 55.0955 15.1546 55.0962C14.4259 55.0962 13.6972 55.0962 12.9684 55.0962L12.9691 55.1054ZM12.1285 53.965C12.6567 53.965 13.1864 53.9769 13.7117 53.9607C14.0524 53.9502 14.1483 53.8198 13.9854 53.5493C13.7837 53.2147 13.5735 52.8372 13.266 52.623C12.3204 51.9623 10.6328 52.3786 10.319 53.6423C10.2583 53.8889 10.3599 53.9671 10.5806 53.9671L12.1285 53.965Z" fill="white"/>
<path d="M22.4881 54.6076C22.4881 55.5938 22.479 56.5799 22.4938 57.5626C22.498 57.8697 22.3788 57.9775 22.084 57.9888C21.0044 58.0303 20.9966 58.036 20.991 56.9561C20.9839 55.6412 20.9867 54.3277 20.9994 53.0156C20.9994 52.6824 20.8732 52.5429 20.5446 52.55C20.0403 52.5613 19.5347 52.569 19.0305 52.5584C18.7209 52.5528 18.6215 52.6888 18.6257 52.9846C18.6377 53.794 18.6313 54.6048 18.6299 55.412C18.6299 56.1502 18.4423 56.8286 17.9247 57.3801C17.5298 57.8028 17.0157 57.9874 16.4438 58.0331C16.1843 58.0543 16.0735 57.9324 16.0912 57.6809C16.1096 57.5408 16.1186 57.3996 16.118 57.2583C16.1024 56.9216 16.1321 56.6764 16.5481 56.544C17.0326 56.389 17.144 55.9234 17.1462 55.4494C17.1518 54.1955 17.1565 52.9412 17.1603 51.6864C17.1603 51.2806 17.2202 51.2201 17.6285 51.2165C19.0841 51.2032 20.5396 51.1954 21.9952 51.175C22.3168 51.17 22.467 51.2729 22.4627 51.6181C22.4486 52.6148 22.4578 53.6122 22.4578 54.609L22.4881 54.6076Z" fill="white"/>
<path d="M25.3343 53.7515C25.5748 53.5402 25.7377 53.4105 25.8851 53.2654C26.4963 52.6653 27.1034 52.0618 27.7066 51.4551C27.8066 51.3478 27.93 51.2651 28.0673 51.2134C28.2045 51.1617 28.3519 51.1424 28.4979 51.1571C28.8505 51.1832 29.2087 51.1635 29.5642 51.1635L29.622 51.3044C29.3632 51.5629 29.1065 51.8221 28.8463 52.0792C28.1523 52.7597 27.4542 53.4359 26.7638 54.122C26.5727 54.3115 26.6453 54.4827 26.8145 54.6686C27.7003 55.6379 28.5785 56.6135 29.4492 57.5955C29.5197 57.6736 29.5437 57.7906 29.5903 57.8899C29.4861 57.9228 29.3792 57.9464 29.2708 57.9603C28.9774 57.973 28.6826 57.954 28.3914 57.9801C28.1142 58.0047 27.9323 57.9005 27.7567 57.6941C27.0346 56.8488 26.2969 56.0162 25.5628 55.1807C25.5127 55.123 25.445 55.0814 25.2758 55.0476C25.2673 55.3519 25.2518 55.6562 25.2504 55.9633C25.2504 56.5149 25.2504 57.0664 25.261 57.6173C25.2666 57.8709 25.1637 57.9737 24.9126 57.9892C23.7751 58.0597 23.7666 58.0639 23.7617 56.9326C23.7539 55.1843 23.7582 53.4352 23.7617 51.6868C23.7617 51.2607 23.8146 51.2114 24.249 51.1853C25.2363 51.1254 25.2363 51.1254 25.2497 52.1222C25.2546 52.5209 25.256 52.9196 25.2673 53.3197C25.2815 53.4648 25.3038 53.6089 25.3343 53.7515Z" fill="white"/>
</g>
<defs>
<clipPath id="clip0_2480_4195">
<rect width="56" height="61" fill="white" transform="translate(0.75)"/>
</clipPath>
</defs>
</svg>
