<svg width="19" height="31" viewBox="0 0 19 31" fill="none" xmlns="http://www.w3.org/2000/svg">
<g clip-path="url(#clip0_775_240)">
<path d="M4.90186 8.87936C4.90186 7.40752 5.36662 5.99597 6.19399 4.95522C7.02135 3.91447 8.14355 3.32977 9.31362 3.32977C10.4837 3.32977 11.6058 3.91447 12.4332 4.95522C13.2606 5.99597 13.7254 7.40752 13.7254 8.87936" stroke="currentColor" stroke-width="2" stroke-miterlimit="10"/>
<path d="M13.7254 12.2091C13.7254 13.3866 13.2606 14.5158 12.4332 15.3484C11.6058 16.181 10.4837 16.6488 9.31362 16.6488C8.14355 16.6488 7.02141 16.181 6.19404 15.3484C5.36668 14.5158 4.90186 13.3866 4.90186 12.2091" stroke="currentColor" stroke-width="2" stroke-miterlimit="10" stroke-linecap="round"/>
<path d="M0.990273 29.8901C0.935523 28.6127 1.1105 27.336 1.50458 26.1374C1.89867 24.9388 2.50365 23.8433 3.28286 22.9173C4.06207 21.9913 4.99927 21.2541 6.03764 20.7504C7.07601 20.2467 8.19392 19.9869 9.32361 19.9869C10.4533 19.9869 11.5712 20.2467 12.6096 20.7504C13.6479 21.2541 14.5851 21.9913 15.3644 22.9173C16.1436 23.8433 16.7485 24.9388 17.1426 26.1374C17.5367 27.336 17.7117 28.6127 17.6569 29.8901" stroke="currentColor" stroke-width="2" stroke-miterlimit="10" stroke-linecap="round"/>
<path d="M1.96069 8.87933H16.6666" stroke="currentColor" stroke-width="2" stroke-miterlimit="10" stroke-linecap="round"/>
</g>
<defs>
<clipPath id="clip0_775_240">
<rect width="19" height="31" fill="white"/>
</clipPath>
</defs>
</svg>
