<svg width="100%" height="100%" viewBox="0 0 88 87" fill="none" xmlns="http://www.w3.org/2000/svg">
<g clip-path="url(#clip0_624_5175)">
<path d="M32.9981 87H15C11.1544 87 7.46623 85.4723 4.74695 82.753C2.02767 80.0338 0.5 76.3456 0.5 72.5V54.375C0.5 50.5294 2.02767 46.8412 4.74695 44.122C7.46623 41.4027 11.1544 39.875 15 39.875H47.1066C49.0685 39.8759 50.9969 40.3833 52.7052 41.3479C54.4135 42.3126 55.8439 43.7019 56.8579 45.3814L68.5195 32.567C69.4841 31.5063 70.6483 30.6461 71.9455 30.0355C73.2427 29.425 74.6475 29.0761 76.0796 29.0087C77.5118 28.9414 78.9431 29.157 80.2919 29.6431C81.6407 30.1293 82.8804 30.8765 83.9403 31.842C86.055 33.7847 87.3223 36.4802 87.4694 39.348C87.6165 42.2159 86.6317 45.0268 84.7269 47.1758L60.0769 74.8599C56.6734 78.6771 52.5016 81.7319 47.835 83.824C43.1684 85.9162 38.1123 86.9985 32.9981 87ZM15 47.125C13.0772 47.125 11.2331 47.8888 9.87348 49.2485C8.51384 50.6081 7.75 52.4522 7.75 54.375V72.5C7.75 74.4228 8.51384 76.2669 9.87348 77.6265C11.2331 78.9862 13.0772 79.75 15 79.75H32.9981C37.0868 79.7484 41.1291 78.8827 44.8598 77.2097C48.5906 75.5367 51.9258 73.0942 54.6466 70.0423L79.3148 42.3545C79.9552 41.6331 80.2867 40.689 80.2379 39.7256C80.1891 38.7621 79.7639 37.8564 79.0538 37.2034C78.3317 36.5542 77.385 36.2122 76.4147 36.25C75.9338 36.2703 75.4617 36.3863 75.026 36.591C74.5904 36.7958 74.1998 37.0853 73.8773 37.4426L57.833 55.1C57.1286 57.0494 55.9082 58.771 54.3019 60.0811C52.6956 61.3911 50.7637 62.2405 48.7125 62.5385L30.0039 65.2138C29.0521 65.3503 28.085 65.1031 27.3155 64.5266C26.5459 63.9501 26.0369 63.0915 25.9004 62.1398C25.7639 61.188 26.011 60.2209 26.5875 59.4514C27.164 58.6818 28.0226 58.1728 28.9744 58.0363L47.6866 55.3646C48.7253 55.2194 49.6702 54.6854 50.3303 53.8704C50.9905 53.0554 51.3166 52.0203 51.243 50.9741C51.1694 49.9279 50.7014 48.9486 49.9336 48.2341C49.1658 47.5197 48.1554 47.1233 47.1066 47.125H15ZM40.375 32.8932C38.732 32.8977 37.1369 32.34 35.8546 31.3127C29.6486 26.332 22.25 18.85 22.25 11.6C22.161 8.62157 23.2551 5.72911 25.2931 3.55527C27.3311 1.38143 30.147 0.103139 33.125 0C35.8341 0.0105517 38.4333 1.07234 40.375 2.96162C42.3167 1.07234 44.9159 0.0105517 47.625 0C50.603 0.103139 53.4189 1.38143 55.4569 3.55527C57.4949 5.72911 58.589 8.62157 58.5 11.6C58.5 18.85 51.1014 26.332 44.8918 31.3164C43.6099 32.3415 42.0163 32.8979 40.375 32.8932ZM33.125 7.25C32.0714 7.35571 31.1014 7.87067 30.4235 8.68414C29.7456 9.4976 29.414 10.5446 29.5 11.6C29.5 14.8625 33.6724 20.2638 40.3968 25.6614C47.0776 20.2638 51.25 14.8625 51.25 11.6C51.336 10.5446 51.0044 9.4976 50.3265 8.68414C49.6487 7.87067 48.6786 7.35571 47.625 7.25C46.5714 7.35571 45.6014 7.87067 44.9235 8.68414C44.2456 9.4976 43.914 10.5446 44 11.6C44 12.5614 43.6181 13.4834 42.9383 14.1633C42.2584 14.8431 41.3364 15.225 40.375 15.225C39.4136 15.225 38.4916 14.8431 37.8117 14.1633C37.1319 13.4834 36.75 12.5614 36.75 11.6C36.836 10.5446 36.5044 9.4976 35.8265 8.68414C35.1487 7.87067 34.1786 7.35571 33.125 7.25Z" fill="#048737"/>
</g>
<defs>
<clipPath id="clip0_624_5175">
<rect width="87" height="87" fill="white" transform="translate(0.5)"/>
</clipPath>
</defs>
</svg>
