<svg width="100%" height="100%" viewBox="0 0 88 87" fill="none" xmlns="http://www.w3.org/2000/svg">
<g clip-path="url(#clip0_624_5115)">
<path d="M84.3065 3.15951C83.1735 2.02919 81.8039 1.16427 80.2963 0.627072C78.7888 0.08987 77.1809 -0.106236 75.5884 0.052885C65.4638 1.03164 31.4142 5.24751 18.2627 18.3845C11.9761 24.6882 8.24827 33.0978 7.79905 41.9891C7.34983 50.8805 10.2111 59.6229 15.8303 66.5281L1.54785 80.8106C0.887531 81.4943 0.522151 82.41 0.53041 83.3605C0.53867 84.3109 0.919907 85.2201 1.59201 85.8922C2.26411 86.5643 3.17331 86.9456 4.12377 86.9538C5.07423 86.9621 5.98991 86.5967 6.6736 85.9364L20.9561 71.6539C27.8599 77.2806 36.6047 80.1479 45.4998 79.7013C54.395 79.2547 62.8086 75.526 69.1142 69.236C82.4396 55.9069 86.5141 21.9624 87.453 11.8776C87.6065 10.2822 87.4039 8.67253 86.8597 7.16489C86.3156 5.65724 85.4435 4.2892 84.3065 3.15951ZM64.0065 64.0958C59.0639 69.0203 52.498 71.9777 45.5346 72.416C38.5712 72.8542 31.6863 70.7434 26.1652 66.4774L61.0812 31.5614C61.7415 30.8777 62.1069 29.962 62.0986 29.0116C62.0903 28.0611 61.7091 27.1519 61.037 26.4798C60.3649 25.8077 59.4557 25.4265 58.5052 25.4182C57.5548 25.4099 56.6391 25.7753 55.9554 26.4356L21.0213 61.3516C16.7546 55.8308 14.6433 48.9458 15.0815 41.9822C15.5198 35.0186 18.4777 28.4525 23.403 23.5103C32.4981 14.4188 57.5758 9.06101 76.288 7.26663C76.818 7.21506 77.3528 7.28088 77.8545 7.45941C78.3561 7.63794 78.8123 7.92479 79.1906 8.29958C79.5688 8.67437 79.8598 9.12788 80.043 9.62788C80.2261 10.1279 80.2968 10.6621 80.2501 11.1925C78.4376 30.7204 73.214 54.8701 63.9884 64.0958H64.0065Z" fill="#048737"/>
</g>
<defs>
<clipPath id="clip0_624_5115">
<rect width="87" height="87" fill="white" transform="translate(0.5)"/>
</clipPath>
</defs>
</svg>
