<svg width="101" height="15" viewBox="0 0 101 15" fill="none" xmlns="http://www.w3.org/2000/svg">
<g clip-path="url(#clip0_2480_4177)">
<path d="M0.75 14.9314C1.64956 10.1908 2.54486 5.4712 3.44584 0.741488H8.4828C8.68191 3.58091 8.88079 6.41623 9.07943 9.24745L9.1227 9.25541C9.17378 9.14826 9.2277 9.04257 9.27594 8.9347C10.4541 6.27482 11.631 3.61373 12.8068 0.951442C12.8855 0.77262 12.9792 0.72194 13.165 0.722664C14.7081 0.730628 16.2504 0.727012 17.7927 0.727012H18.0672C17.1932 5.47579 16.3215 10.2118 15.4523 14.935H12.1889L14.005 5.09619L13.9724 5.08533C13.9376 5.15772 13.9014 5.23012 13.8674 5.30252C12.4958 8.43105 11.1278 11.5601 9.76332 14.6896C9.68103 14.8785 9.59306 14.956 9.37881 14.9524C8.48848 14.9372 7.59672 14.9458 6.66949 14.9458C6.39187 11.5818 6.11472 8.22424 5.83804 4.87321H5.78271L3.88852 14.9364L0.75 14.9314Z" fill="white"/>
<path d="M96.6012 4.51685C96.8907 2.97262 97.1688 1.48992 97.4476 -0.00146484H100.748C99.8355 4.98019 98.926 9.95027 98.0116 14.9435H97.7413C96.8332 14.9435 95.9244 14.9261 95.0178 14.9529C94.707 14.9623 94.5517 14.8646 94.4665 14.5721C94.3977 14.3772 94.3174 14.1867 94.226 14.0016C93.6551 14.3658 93.0331 14.6389 92.3815 14.8117C91.1755 15.1433 90.178 14.7951 89.343 13.9003C88.4967 12.9946 88.0519 11.8883 87.9575 10.654C87.7865 8.41473 88.525 6.44769 89.8261 4.69061C90.5611 3.69659 91.5997 3.20212 92.8171 3.13552C93.2499 3.11162 93.684 3.10728 94.1175 3.10221C94.4801 3.09064 94.8407 3.16096 95.1735 3.30814C95.5064 3.45532 95.8032 3.67572 96.0429 3.9536C96.2124 4.13821 96.3934 4.30618 96.6012 4.51685ZM95.6605 8.07446C95.63 7.78994 95.6151 7.50252 95.5669 7.22089C95.425 6.40208 94.9936 5.94597 94.2899 5.87285C93.8596 5.83007 93.4292 5.95356 93.0839 6.21891C91.8367 7.14488 91.2032 8.39663 91.3429 9.97779C91.4096 10.7387 91.8097 11.3461 92.556 11.6046C93.2775 11.855 93.9167 11.6198 94.4197 11.0811C95.2029 10.2486 95.6541 9.25454 95.6626 8.07591L95.6605 8.07446Z" fill="white"/>
<path d="M79.3578 14.9419C78.4057 14.9419 77.4664 14.9419 76.5279 14.9361C76.4669 14.9361 76.3909 14.8637 76.3498 14.8058C76.2391 14.6465 76.1426 14.4756 76.066 14.3446C75.6489 14.5068 75.2615 14.7174 74.8486 14.8058C74.0477 14.9759 73.2326 15.0903 72.4167 14.8738C70.558 14.3801 69.6889 12.7584 70.2416 10.8246C70.7524 9.04003 71.9662 8.02502 73.6809 7.56674C74.7238 7.28874 75.7886 7.24819 76.8599 7.29091C77.0429 7.29815 77.2267 7.29091 77.4622 7.29091C77.4721 7.02014 77.514 6.75155 77.4842 6.49454C77.4288 6.01671 77.0919 5.75464 76.5279 5.69817C75.5474 5.60188 74.5705 5.65401 73.5951 5.77491C72.9445 5.856 72.294 5.93273 71.6044 6.01672C71.681 5.59681 71.7463 5.21383 71.8208 4.8323C71.8917 4.43845 71.984 4.04751 72.0464 3.65223C72.0475 3.59538 72.0704 3.54124 72.1102 3.50145C72.15 3.46165 72.2035 3.43936 72.2592 3.43937C73.1815 3.32571 74.1037 3.17368 75.0295 3.10852C75.9887 3.04047 76.9557 3.0144 77.9077 3.23449C78.5462 3.37929 79.1528 3.6153 79.6643 4.04969C80.3737 4.65131 80.6944 5.44985 80.7809 6.3664C80.8738 7.35318 80.6653 8.30592 80.4801 9.26229C80.1296 11.0669 79.7778 12.8715 79.4245 14.6762C79.4053 14.7558 79.3833 14.8347 79.3578 14.9419ZM76.9081 9.68943C76.0568 9.49613 75.2218 9.39985 74.4209 9.84002C73.9576 10.0949 73.5887 10.4532 73.3979 10.968C73.1609 11.6051 73.4127 12.1372 74.0484 12.3348C74.7259 12.5448 75.3467 12.3804 75.9241 12.0004C76.2938 11.7578 76.5626 11.4262 76.6634 10.981C76.7563 10.5618 76.8251 10.1354 76.9081 9.6916V9.68943Z" fill="white"/>
<path d="M18.4313 6.01913C18.559 5.34004 18.6753 4.69788 18.8016 4.05861C18.9144 3.4845 18.9179 3.47942 19.4983 3.373C20.9216 3.11214 22.3698 3.02079 23.8137 3.10079C24.529 3.12904 25.2302 3.31189 25.8711 3.63725C26.9352 4.19326 27.4687 5.1062 27.6028 6.29496C27.7191 7.33169 27.4857 8.33078 27.2914 9.33565C26.9475 11.1166 26.6006 12.8966 26.2506 14.6757C26.2336 14.7625 26.2109 14.848 26.1875 14.9472C25.2404 14.9472 24.3011 14.9472 23.3625 14.9414C23.3259 14.9331 23.2913 14.9176 23.2606 14.8956C23.2299 14.8736 23.2038 14.8456 23.1837 14.8132C23.0688 14.6482 22.9709 14.4722 22.8666 14.3064C21.7975 14.9848 20.6298 15.1245 19.4614 14.9117C17.4586 14.5497 16.4974 12.8556 17.0606 10.8574C17.5934 8.96714 18.8967 7.94996 20.7107 7.52137C21.6883 7.29042 22.6808 7.25422 23.6789 7.29549C23.8393 7.30201 23.9996 7.3049 24.1599 7.30635C24.2137 7.29823 24.2668 7.28613 24.3188 7.27015C24.3188 7.02907 24.3352 6.77713 24.3188 6.52808C24.2812 6.05171 23.9365 5.75922 23.3647 5.70203C22.3842 5.60429 21.408 5.65641 20.4326 5.77442L18.4313 6.01913ZM23.7421 9.71139C23.1802 9.49854 22.2523 9.46596 21.6925 9.65492C21.0157 9.88442 20.4865 10.2956 20.224 10.9979C19.997 11.6096 20.2552 12.1287 20.8625 12.3336C21.2541 12.4656 21.6769 12.4656 22.0685 12.3336C22.8744 12.073 23.4477 11.5886 23.5583 10.6685C23.6009 10.3507 23.6782 10.0408 23.7428 9.71211L23.7421 9.71139Z" fill="white"/>
<path d="M71.8683 1.92271C71.2107 2.59383 70.5651 3.25554 69.911 3.90856C69.8781 3.92951 69.8407 3.94204 69.8021 3.94506C69.7634 3.94809 69.7246 3.94152 69.6889 3.92594C66.9796 2.49971 64.2646 4.25607 63.6652 6.90147C63.4708 7.75793 63.4261 8.61873 63.6652 9.47664C63.8253 10.0879 64.1751 10.6299 64.6622 11.0214C65.1493 11.4129 65.7475 11.633 66.3674 11.6486C66.7361 11.6625 67.1053 11.6455 67.4713 11.5979C67.8338 11.5501 68.1899 11.4444 68.5808 11.3568C68.7291 11.8172 68.8809 12.2878 69.0334 12.7584C69.186 13.229 69.3392 13.7046 69.513 14.244C68.9973 14.4069 68.4978 14.606 67.9785 14.7189C66.7725 14.9709 65.5551 15.0961 64.3505 14.7732C62.0406 14.155 60.6153 12.6013 60.2237 10.226C59.7782 7.52336 60.3748 5.00538 62.0583 2.83419C63.2714 1.26896 64.8769 0.272051 66.8342 0.0765781C68.7482 -0.116723 70.5325 0.273499 71.8683 1.92271Z" fill="white"/>
<path d="M52.4193 9.68028H45.6173C45.186 10.7952 45.8784 11.9912 47.0681 12.1852C47.4327 12.2441 47.8014 12.2726 48.1705 12.2707C48.8048 12.2707 49.439 12.2424 50.0718 12.1983C50.7046 12.1541 51.3332 12.0846 51.9837 12.0231C51.9894 12.075 51.9894 12.1275 51.9837 12.1794C51.8475 12.86 51.7 13.5391 51.5765 14.2225C51.5481 14.3796 51.4772 14.4614 51.3445 14.4925C50.8217 14.6127 50.3017 14.7901 49.7731 14.8263C48.7799 14.8987 47.7825 14.9457 46.7935 14.8885C44.5156 14.7553 42.9108 13.3682 42.4284 11.0805C41.9112 8.62329 42.5781 6.45281 44.2289 4.62116C45.0895 3.66551 46.2359 3.23765 47.4923 3.13629C48.4777 3.05738 49.4503 3.11675 50.3868 3.47004C51.7049 3.96741 52.4122 4.96722 52.6208 6.35653C52.7868 7.46927 52.6392 8.56319 52.4193 9.68028ZM49.6781 7.53298C49.7675 7.0624 49.7689 6.61064 49.5844 6.17408C49.5099 5.99166 49.3923 5.83085 49.2422 5.70594C49.092 5.58103 48.914 5.49589 48.7239 5.45807C47.3582 5.13735 46.0011 6.09879 45.8053 7.53298H49.6781Z" fill="white"/>
<path d="M36.5499 3.51945L35.8284 5.89264C34.9416 5.67545 34.0549 5.66966 33.1631 5.70223C32.9313 5.70609 32.7019 5.75066 32.4849 5.83399C32.0365 6.01861 31.9032 6.44213 32.1174 6.8881C32.2482 7.14334 32.4562 7.34873 32.7105 7.47379C33.4303 7.86764 34.1457 8.27065 34.8565 8.68283C35.7788 9.21351 36.1214 10.0627 36.0767 11.0966C36.0391 11.9552 35.8192 12.7617 35.2758 13.4437C34.6579 14.222 33.8214 14.602 32.8857 14.7953C31.8365 15.0125 30.7751 14.9532 29.7167 14.9126C28.8967 14.8836 28.0834 14.7523 27.2947 14.5217C27.4366 13.7253 27.5834 12.9333 27.7288 12.1326C28.0963 12.205 28.4383 12.3143 28.7838 12.3331C29.672 12.3809 30.5623 12.391 31.4512 12.4113C31.6038 12.4149 31.7563 12.3925 31.9088 12.3867C32.3402 12.37 32.6537 12.1369 32.7559 11.7539C32.8694 11.3268 32.7183 10.8743 32.3494 10.668C31.586 10.2336 30.8376 9.75865 30.0345 9.41766C28.9498 8.95649 28.5156 8.13189 28.5369 7.00973C28.5475 6.51984 28.619 6.03331 28.7497 5.56179C29.0378 4.52578 29.7883 3.91909 30.7319 3.53466C31.4846 3.22915 32.2749 3.11114 33.0815 3.07349C34.1705 3.02281 35.2481 3.05032 36.291 3.42462L36.5499 3.51945Z" fill="white"/>
<path d="M38.8124 0.152832H41.9445C41.7317 1.19029 41.5231 2.21109 41.306 3.27171H42.9952C42.8093 4.10863 42.6355 4.90499 42.4468 5.69846C42.434 5.75204 42.3049 5.80779 42.234 5.80923C41.7693 5.82009 41.3039 5.81503 40.8264 5.81503C40.6924 6.52308 40.5604 7.21157 40.432 7.90152C40.2622 8.81855 40.0943 9.73558 39.9283 10.6526C39.9115 10.7408 39.9004 10.8301 39.895 10.9198C39.8517 11.7306 40.1546 12.0702 40.9499 12.0861C41.1797 12.0904 41.4103 12.0615 41.6636 12.0463C41.6132 12.6587 41.565 13.251 41.516 13.8439C41.5081 13.8756 41.5038 13.9082 41.5032 13.9409C41.5806 14.3941 41.2996 14.557 40.947 14.6779C40.1667 14.9436 39.3756 15.0884 38.5591 14.9117C37.0984 14.5946 36.4074 13.4747 36.562 12.0419C36.6798 10.956 36.9224 9.88376 37.1296 8.80866C37.6612 6.04067 38.1985 3.27412 38.7414 0.50903C38.7606 0.394642 38.7826 0.283871 38.8124 0.152832Z" fill="white"/>
<path d="M85.754 4.28956C86.5798 3.415 87.6099 3.16741 88.7407 3.13989C88.7367 3.2002 88.7289 3.26017 88.7173 3.31944C88.4676 4.21572 88.2115 5.10983 87.971 6.00828C87.9277 6.169 87.8596 6.21678 87.7064 6.21027C86.7515 6.17045 86.0648 6.62293 85.5781 7.43306C85.0325 8.3402 84.758 9.34 84.5849 10.3804C84.338 11.8283 84.067 13.2762 83.8045 14.7242C83.7932 14.7886 83.7719 14.8509 83.752 14.9255H80.5972C80.6816 14.4534 80.7625 13.9908 80.8469 13.5289C81.2905 11.1017 81.7344 8.67443 82.1785 6.24719C82.3568 5.27417 82.5337 4.30139 82.7091 3.32885C82.7326 3.19781 82.7765 3.13627 82.922 3.13772C83.7085 3.14544 84.4955 3.14544 85.283 3.13772C85.4369 3.13772 85.4873 3.1913 85.5178 3.33899C85.5809 3.64812 85.6689 3.95292 85.754 4.28956Z" fill="white"/>
<path d="M54.6468 3.27744C55.5222 3.27744 56.365 3.27381 57.2071 3.28467C57.2696 3.28467 57.3646 3.38169 57.3852 3.45119C57.4739 3.75309 57.5406 4.06149 57.6243 4.40393C58.4536 3.55254 59.4553 3.28033 60.6039 3.27888C60.5443 3.50766 60.4911 3.7082 60.4393 3.90874C60.2456 4.65081 60.0484 5.39216 59.8618 6.1364C59.8249 6.2812 59.7767 6.3536 59.61 6.34708C58.6054 6.29061 57.8939 6.77133 57.3958 7.63069C56.8978 8.49004 56.6424 9.40877 56.4778 10.376C56.2288 11.8334 55.9571 13.2871 55.6939 14.7423C55.6826 14.8053 55.6613 14.8668 55.6443 14.9327H52.5171C53.2265 11.0442 53.9345 7.17241 54.6468 3.27744Z" fill="white"/>
</g>
<defs>
<clipPath id="clip0_2480_4177">
<rect width="100" height="15" fill="white" transform="translate(0.75)"/>
</clipPath>
</defs>
</svg>
