<svg width="92" height="42" viewBox="0 0 92 42" fill="none" xmlns="http://www.w3.org/2000/svg">
<g clip-path="url(#clip0_2480_4160)">
<path d="M21.47 20.6567H24.8563V22.0171C24.9704 21.9579 25.0774 21.8858 25.1754 21.8023C25.7203 21.2572 26.3783 20.8411 27.102 20.5841C27.8256 20.3272 28.5967 20.2358 29.3596 20.3166C31.1877 20.3476 32.946 21.0308 34.323 22.2452C35.6999 23.4596 36.6068 25.1268 36.8829 26.9516C37.2922 28.9834 36.9051 31.0963 35.8028 32.8457C34.7006 34.5951 32.9692 35.8446 30.973 36.3314C29.9093 36.6275 28.788 36.6426 27.7168 36.3751C26.6457 36.1076 25.6607 35.5665 24.8563 34.8039V41.964H21.4995L21.47 20.6567ZM24.6317 28.4135C24.6317 28.6701 24.6317 29.0102 24.6967 29.3145C24.8918 30.9971 25.5537 32.4172 27.2025 33.0735C28.0078 33.4454 28.9069 33.5583 29.7779 33.3972C30.6489 33.236 31.4499 32.8085 32.0723 32.1726C33.4552 30.83 33.7093 29.1295 33.4256 27.2858C33.3262 26.5268 33.0366 25.8061 32.5843 25.1917C32.132 24.5773 31.5318 24.0896 30.8407 23.7748C30.1495 23.4599 29.3903 23.3283 28.6347 23.3925C27.8791 23.4566 27.1523 23.7144 26.5229 24.1413C25.075 25.1556 24.679 26.6652 24.6317 28.3956V28.4135Z" fill="white"/>
<path d="M54.4587 36.23H51.1255V34.8278C50.7177 35.1321 50.3986 35.4245 50.044 35.6214C48.7048 36.3605 47.1692 36.6556 45.6546 36.465C44.1401 36.2744 42.7233 35.6077 41.6047 34.5593C40.4371 33.5454 39.5905 32.2073 39.1702 30.7115C38.7499 29.2156 38.7745 27.628 39.2408 26.1462C39.5833 24.6982 40.3432 23.3851 41.4246 22.373C42.5059 21.3609 43.8601 20.6952 45.3161 20.4598C47.3905 20.0481 49.3526 20.3644 50.9896 22.0112L51.0605 20.6627H54.4409L54.4587 36.23ZM51.3324 28.2286C51.2784 27.693 51.1936 27.161 51.0782 26.6354C50.9131 25.8454 50.5165 25.1237 49.9401 24.5641C49.3636 24.0044 48.6339 23.6326 47.8455 23.4969C47.0249 23.287 46.1606 23.3319 45.3657 23.6257C44.5707 23.9195 43.882 24.4485 43.3895 25.1437C42.9496 25.7643 42.6417 26.47 42.4851 27.2165C42.3284 27.9631 42.3265 28.7342 42.4794 29.4816C42.5851 30.2583 42.8882 30.9943 43.3592 31.6177C43.8302 32.241 44.453 32.7307 45.1671 33.0389C45.8812 33.3471 46.6621 33.4634 47.4339 33.3764C48.2057 33.2894 48.942 33.0021 49.5712 32.5425C50.9719 31.5162 51.2083 29.9649 51.3324 28.2286Z" fill="white"/>
<path d="M25.7369 0.399902H31.103C31.6231 3.66968 32.1412 6.92753 32.6573 10.1734H32.7341C33.2581 6.92355 33.7821 3.66571 34.3061 0.399902H39.6664C39.7669 4.77353 39.8673 9.1233 39.9678 13.5268H36.5696V2.5539H36.4101C36.1323 4.06946 35.8191 5.58502 35.5709 7.10057C35.1926 9.12927 34.8262 11.1639 34.4243 13.1926C34.3916 13.2823 34.338 13.3627 34.2681 13.427C34.1981 13.4914 34.1139 13.5379 34.0225 13.5626C33.136 13.5626 32.2495 13.5626 31.363 13.5626C31.0143 13.5626 30.9789 13.3597 30.9316 13.1031C30.2815 9.52307 29.6275 5.9649 28.9695 2.4286C28.9695 2.4286 28.94 2.4286 28.8277 2.30927V13.5208H25.4473C25.5418 9.177 25.6364 4.8153 25.7369 0.399902Z" fill="white"/>
<path d="M64.7597 31.5047C65.2798 30.1979 65.7703 28.9688 66.2549 27.7396C67.1296 25.52 68.0278 23.3004 68.873 21.0748C68.9068 20.9315 68.9919 20.8059 69.1119 20.7222C69.2319 20.6385 69.3784 20.6026 69.523 20.6213C70.5514 20.6213 71.5856 20.6213 72.7144 20.6213C72.4011 21.3731 72.1234 22.0354 71.8633 22.6918C69.2394 28.933 66.6233 35.1722 64.0151 41.4095C63.9737 41.6001 63.8622 41.7677 63.7032 41.8785C63.5441 41.9892 63.3493 42.0349 63.1581 42.0062C62.2007 41.9644 61.2374 42.0062 60.2032 42.0062C60.3214 41.6899 60.41 41.4095 60.5164 41.1708C61.2847 39.3808 62.0569 37.5908 62.8331 35.8007C62.913 35.6428 62.9546 35.4679 62.9546 35.2906C62.9546 35.1132 62.913 34.9384 62.8331 34.7804C60.7607 30.2417 58.7139 25.701 56.6927 21.1583C56.6277 21.0091 56.5745 20.848 56.48 20.6094C57.662 20.6094 58.7966 20.6094 59.9195 20.6094C60.0554 20.6094 60.2327 20.8958 60.3155 21.0867C61.6629 24.2212 63.0025 27.3558 64.3342 30.4903C64.4524 30.8304 64.5942 31.1228 64.7597 31.5047Z" fill="white"/>
<path d="M71.3254 13.4012H68.1814V0.411621H73.0275C73.9849 3.70527 74.9482 6.97505 75.9292 10.3701V0.411621H79.1265C79.1265 0.608524 79.1619 0.787524 79.1619 0.972493C79.1619 4.93442 79.1619 8.89635 79.1619 12.8642C79.1619 13.3416 79.0201 13.4609 78.5709 13.4609C77.389 13.4609 76.1597 13.4609 74.9482 13.4609C74.5581 13.4609 74.4104 13.3296 74.2981 12.9537C73.3722 9.80727 72.4326 6.66876 71.4791 3.5382C71.4377 3.40096 71.3845 3.26373 71.3314 3.11456L71.3254 13.4012Z" fill="white"/>
<path d="M61.2314 0.405762H64.5646V0.936803C64.5646 4.02162 64.5646 7.10643 64.5646 10.1912C64.5646 12.3214 63.3826 13.6818 61.2669 13.8429C60.1862 13.9367 59.0981 13.8926 58.0283 13.7116C57.2817 13.5928 56.6037 13.2029 56.1216 12.6151C55.6396 12.0274 55.3866 11.2822 55.4102 10.5194C55.4102 7.22576 55.4102 3.95598 55.4102 0.632497C55.4145 0.562197 55.4244 0.49236 55.4398 0.423661H58.7788V10.3225C58.7536 10.5809 58.8225 10.8398 58.9726 11.0506C59.1227 11.2615 59.3437 11.4099 59.5944 11.4681C59.8609 11.5739 60.1565 11.5784 60.4261 11.4807C60.6956 11.383 60.9209 11.1899 61.06 10.9371C61.1885 10.5841 61.2468 10.209 61.2314 9.83323C61.2314 6.93936 61.2314 4.04548 61.2314 1.14564V0.405762Z" fill="white"/>
<path d="M88.3695 8.14478H87.1402V6.14591H91.6376C91.6376 6.14591 91.7026 6.19365 91.7026 6.22348C91.7026 7.6734 91.7854 9.12332 91.7026 10.5613C91.6719 11.2417 91.4256 11.8942 91.0001 12.4226C90.5745 12.9511 89.9921 13.3277 89.3387 13.497C87.8946 13.9715 86.3386 13.9715 84.8945 13.497C84.196 13.3047 83.581 12.883 83.1464 12.2984C82.7119 11.7138 82.4827 10.9997 82.4951 10.2689C82.4655 8.07914 82.4655 5.88338 82.4951 3.70551C82.4643 2.93556 82.699 2.17867 83.1592 1.56391C83.6194 0.949144 84.2765 0.514573 85.0186 0.334292C86.433 -0.100454 87.9458 -0.0837823 89.3505 0.382027C90.0489 0.571402 90.6643 0.991751 91.0982 1.57586C91.5321 2.15997 91.7595 2.87411 91.744 3.60408C91.744 3.90838 91.744 4.20075 91.744 4.56472H88.3695C88.3695 4.23655 88.3695 3.91435 88.3695 3.59811C88.3578 3.29804 88.2345 3.01344 88.0242 2.8011C87.8139 2.58875 87.532 2.46427 87.2348 2.45249C86.9444 2.412 86.6492 2.47507 86.4 2.63084C86.1507 2.7866 85.9632 3.02529 85.8696 3.30574C85.7987 3.56215 85.7629 3.82714 85.7632 4.09335C85.7632 6.03851 85.7632 7.97771 85.7632 9.92287C85.7632 11.0327 86.4133 11.5816 87.4771 11.3609C87.7121 11.3369 87.9309 11.2285 88.0935 11.0555C88.2562 10.8825 88.352 10.6564 88.3636 10.4181C88.3872 9.6663 88.3695 8.92642 88.3695 8.14478Z" fill="white"/>
<path d="M0.755986 9.2249H4.3019C4.3019 9.60677 4.3019 10.0006 4.3019 10.4183C4.2746 10.676 4.33609 10.9354 4.47602 11.1528C4.61595 11.3701 4.82578 11.5321 5.07018 11.6116C5.33584 11.7097 5.62396 11.7281 5.89976 11.6646C6.17556 11.6011 6.42725 11.4583 6.62448 11.2536C6.78639 11.0179 6.87315 10.7379 6.87315 10.4511C6.87315 10.1642 6.78639 9.88424 6.62448 9.64854C6.17512 9.1943 5.67539 8.79387 5.13519 8.45519C4.16597 7.81078 3.11402 7.26184 2.18026 6.5876C0.212276 5.16751 0.549139 2.08269 1.97342 1.05641C2.62381 0.569454 3.37574 0.238851 4.17188 0.0897992C5.15435 -0.0416368 6.15102 -0.0194988 7.12681 0.155434C9.26027 0.537306 10.1763 1.94546 9.82762 4.25459H6.56538C6.56538 3.92045 6.56538 3.62212 6.56538 3.32378C6.57424 3.09199 6.50127 2.86456 6.35947 2.68206C6.21767 2.49955 6.01627 2.37383 5.79118 2.32733C5.55072 2.23401 5.28664 2.22255 5.03914 2.29472C4.79163 2.36689 4.57426 2.51872 4.4201 2.7271C4.26521 2.92277 4.18084 3.16579 4.18084 3.41626C4.18084 3.66674 4.26521 3.90976 4.4201 4.10542C4.76141 4.47925 5.15817 4.79729 5.59616 5.04817C6.58902 5.64485 7.62324 6.24152 8.61609 6.8382C10.6609 8.11509 10.4777 10.8061 9.73306 12.2918C9.50264 12.6992 9.18718 13.0512 8.80857 13.3232C8.42996 13.5952 7.99726 13.7808 7.5405 13.867C6.22288 14.2132 4.83942 14.2132 3.5218 13.867C1.74884 13.4195 0.844634 12.25 0.755986 10.3288C0.744166 9.95284 0.755986 9.60081 0.755986 9.2249Z" fill="white"/>
<path d="M17.5872 1.86772C16.9962 5.74015 16.4052 9.62451 15.8142 13.5268H12.2683C13.0721 9.1412 13.864 4.80337 14.6677 0.399902H20.5303C21.3222 4.73773 22.12 9.09347 22.9356 13.5268C21.7536 13.5268 20.6603 13.5268 19.5552 13.5268C19.4665 13.5268 19.3188 13.2941 19.301 13.1568C18.9465 10.7701 18.6037 8.35359 18.255 5.95495C18.058 4.5826 17.861 3.21422 17.664 1.84982L17.5872 1.86772Z" fill="white"/>
<path d="M43.0586 9.22463H46.5573C46.5573 9.58263 46.5573 9.93467 46.5573 10.2867C46.5245 10.5752 46.5971 10.8658 46.7614 11.1042C46.9256 11.3425 47.1703 11.5122 47.4497 11.5815C47.7119 11.6622 47.9923 11.661 48.2539 11.5779C48.5154 11.4949 48.746 11.3339 48.9153 11.1161C49.0815 10.8577 49.1546 10.5494 49.1223 10.243C49.09 9.93665 48.9543 9.65081 48.738 9.43347C48.1268 8.93318 47.4832 8.4747 46.8114 8.06111C46.0254 7.54201 45.1862 7.10643 44.4474 6.53362C43.1 5.50137 42.9109 4.05742 43.3305 2.52396C43.7501 0.990504 44.9084 0.375932 46.2854 0.196929C47.255 0.0775861 48.2353 0.0775861 49.2049 0.196929C51.3442 0.441566 52.3312 1.89745 52.0298 4.28416H48.8089C48.8089 3.96792 48.8089 3.68748 48.8089 3.41301C48.8181 3.17196 48.7425 2.9354 48.5953 2.74534C48.4482 2.55527 48.2391 2.42399 48.0052 2.37479C47.7606 2.29654 47.4973 2.3008 47.2553 2.38691C47.0133 2.47303 46.8056 2.63633 46.6636 2.85213C46.5271 3.06151 46.464 3.31102 46.4844 3.56085C46.5047 3.81067 46.6074 4.04641 46.7759 4.23045C47.1182 4.54781 47.4972 4.82228 47.9047 5.0479C48.7912 5.59088 49.7131 6.06822 50.5937 6.61119C52.6208 7.86421 52.804 9.86307 52.083 11.9156C51.9022 12.3713 51.611 12.7739 51.2362 13.0866C50.8615 13.3993 50.415 13.6122 49.9377 13.7057C48.4665 14.1435 46.8984 14.1207 45.4403 13.64C44.7548 13.4459 44.1518 13.0292 43.7245 12.4544C43.2972 11.8795 43.0694 11.1785 43.0764 10.4597C43.0409 10.0719 43.0586 9.67214 43.0586 9.22463Z" fill="white"/>
</g>
<defs>
<clipPath id="clip0_2480_4160">
<rect width="91" height="42" fill="white" transform="translate(0.75)"/>
</clipPath>
</defs>
</svg>
