<svg width="100%" height="100%" viewBox="0 0 88 87" fill="none" xmlns="http://www.w3.org/2000/svg">
<g clip-path="url(#clip0_624_5177)">
<path d="M46.1974 83.1696C44.7695 83.7201 43.1878 83.7201 41.7599 83.1696C30.6186 78.8916 21.037 71.3357 14.2806 61.498C7.52418 51.6605 3.911 40.0049 3.91822 28.0708V9.58136C3.91822 7.94682 4.56755 6.37914 5.72336 5.22336C6.8792 4.06754 8.44682 3.41821 10.0814 3.41821H77.876C79.5103 3.41821 81.0782 4.06754 82.2341 5.22336C83.3899 6.37914 84.0393 7.94682 84.0393 9.58136V28.0708C84.0462 40.0049 80.4332 51.6605 73.677 61.498C66.9202 71.3357 57.3387 78.8916 46.1974 83.1696Z" stroke="#048737" stroke-width="8" stroke-linecap="round" stroke-linejoin="round"/>
<path d="M62.6429 24.8572L37.7857 52.8215L25.3572 43.5" stroke="#048737" stroke-width="8" stroke-linecap="round" stroke-linejoin="round"/>
</g>
<defs>
<clipPath id="clip0_624_5177">
<rect width="87" height="87" fill="white" transform="translate(0.5)"/>
</clipPath>
</defs>
</svg>
