<svg width="100%" height="100%" viewBox="0 0 104 82" fill="none" xmlns="http://www.w3.org/2000/svg">
<path d="M87.9682 29.6769C81.761 35.0795 71.9976 34.1589 66.91 27.6913C61.8224 21.2237 63.227 11.5181 69.9394 6.75813C76.2166 1.79478 96.1427 4.71439 96.1427 4.71439C96.1427 4.71439 94.3181 24.7135 87.9682 29.6769Z" stroke="#048737" stroke-width="6.5" stroke-linecap="round" stroke-linejoin="round"/>
<path d="M22.3734 42.0373C27.8092 46.7688 36.3598 45.9626 40.8154 40.2984C45.2675 34.6387 43.9741 26.0869 38.1623 21.9656C32.665 17.6189 15.2141 20.1758 15.2141 20.1758C15.2141 20.1758 16.8122 37.6906 22.3734 42.0373Z" stroke="#048737" stroke-width="6.5" stroke-linecap="round" stroke-linejoin="round"/>
<path d="M4.17847 78.2858C4.17847 78.2858 18.8928 63.5715 51.9999 63.5715C85.107 63.5715 99.8213 78.2858 99.8213 78.2858" stroke="#048737" stroke-width="6.5" stroke-linecap="round" stroke-linejoin="round"/>
<path d="M67.5884 28.5227L66.6094 29.4368C59.2523 36.794 52.7062 53.7417 51.9997 63.5715C51.9997 51.9255 49.7531 46.7566 41.5537 40.1752L41.1941 39.8333" stroke="#048737" stroke-width="6.5" stroke-linecap="round" stroke-linejoin="round"/>
</svg>
