<svg width="26" height="27" viewBox="0 0 26 27" fill="none" xmlns="http://www.w3.org/2000/svg">
<g clip-path="url(#clip0_775_2341)">
<path d="M13 13.4999C14.2856 13.4999 15.5423 13.1187 16.6112 12.4045C17.6801 11.6903 18.5132 10.6751 19.0052 9.48738C19.4972 8.29966 19.6259 6.99273 19.3751 5.73186C19.1243 4.47098 18.5052 3.31279 17.5962 2.40375C16.6872 1.49471 15.529 0.875642 14.2681 0.624838C13.0072 0.374034 11.7003 0.502755 10.5126 0.994725C9.32484 1.48669 8.30968 2.31982 7.59545 3.38874C6.88122 4.45765 6.5 5.71436 6.5 6.99994C6.50172 8.72332 7.18709 10.3756 8.40571 11.5942C9.62432 12.8128 11.2766 13.4982 13 13.4999ZM13 2.66661C13.8571 2.66661 14.6949 2.92075 15.4075 3.39691C16.1201 3.87306 16.6755 4.54983 17.0035 5.34165C17.3315 6.13346 17.4173 7.00475 17.2501 7.84533C17.0829 8.68592 16.6702 9.45804 16.0641 10.0641C15.4581 10.6701 14.686 11.0828 13.8454 11.25C13.0048 11.4172 12.1335 11.3314 11.3417 11.0034C10.5499 10.6754 9.87312 10.12 9.39697 9.40741C8.92081 8.6948 8.66667 7.85699 8.66667 6.99994C8.66667 5.85067 9.12321 4.74847 9.93587 3.93581C10.7485 3.12315 11.8507 2.66661 13 2.66661Z" fill="currentColor"/>
<path d="M13 15.6673C10.415 15.6702 7.93673 16.6983 6.10888 18.5262C4.28102 20.3541 3.25287 22.8323 3.25 25.4173C3.25 25.7046 3.36414 25.9802 3.5673 26.1834C3.77047 26.3865 4.04602 26.5007 4.33333 26.5007C4.62065 26.5007 4.8962 26.3865 5.09937 26.1834C5.30253 25.9802 5.41667 25.7046 5.41667 25.4173C5.41667 23.4061 6.21562 21.4773 7.63777 20.0551C9.05992 18.633 10.9888 17.834 13 17.834C15.0112 17.834 16.9401 18.633 18.3622 20.0551C19.7844 21.4773 20.5833 23.4061 20.5833 25.4173C20.5833 25.7046 20.6975 25.9802 20.9006 26.1834C21.1038 26.3865 21.3793 26.5007 21.6667 26.5007C21.954 26.5007 22.2295 26.3865 22.4327 26.1834C22.6359 25.9802 22.75 25.7046 22.75 25.4173C22.7471 22.8323 21.719 20.3541 19.8911 18.5262C18.0633 16.6983 15.585 15.6702 13 15.6673Z" fill="currentColor"/>
</g>
<defs>
<clipPath id="clip0_775_2341">
<rect width="26" height="26" fill="white" transform="translate(0 0.5)"/>
</clipPath>
</defs>
</svg>
