<svg width="100%" height="100%" viewBox="0 0 59 19" fill="none" xmlns="http://www.w3.org/2000/svg">
<g clip-path="url(#clip0_2480_4171)">
<path d="M49.9225 12.6198C49.8635 12.5479 49.798 12.5014 49.8044 12.47C49.8119 12.4416 49.8255 12.4152 49.8442 12.3928C49.863 12.3703 49.8863 12.3523 49.9127 12.3401C49.9422 12.3286 50.0387 12.3995 50.0353 12.411C50.0047 12.4843 49.9669 12.5542 49.9225 12.6198Z" fill="black"/>
<path d="M58.7484 18.6915H57.6407C56.6487 18.6915 55.6558 18.6845 54.6638 18.697C54.4614 18.6995 54.3999 18.6261 54.3649 18.4408C54.2212 17.6818 54.0641 16.9257 53.9105 16.1687C53.8977 16.1043 53.8766 16.0419 53.8529 15.957H53.6068C51.7853 15.957 49.9637 15.9605 48.1422 15.951C47.9251 15.951 47.8311 16.0159 47.7602 16.2246C47.5012 16.9862 47.2186 17.7397 46.9488 18.4983C46.8996 18.6306 46.843 18.698 46.6879 18.698C45.1618 18.6915 43.6356 18.6935 42.1095 18.693C42.0691 18.693 42.0287 18.6855 41.947 18.6775C42.0155 18.5132 42.0775 18.3654 42.1385 18.2176L47.4928 5.27247C47.9743 4.10744 48.4691 2.94741 48.9314 1.77688C49.3252 0.784139 50.0563 0.303746 51.0734 0.278777C52.3115 0.249314 53.5502 0.278777 54.7888 0.265793C55.0177 0.265793 55.0099 0.415602 55.0384 0.551431C55.3827 2.21833 55.7255 3.88589 56.0668 5.55411C56.953 9.86567 57.8391 14.1769 58.7253 18.4878C58.7365 18.5552 58.7442 18.6232 58.7484 18.6915ZM49.2356 12.1498H53.0953C52.6355 9.88214 52.1796 7.63748 51.7242 5.39281L51.6686 5.39831L49.2356 12.1498Z" fill="white"/>
<path d="M12.751 12.8837C12.8632 12.5786 12.9528 12.3429 13.037 12.1057C14.4155 8.23528 15.7916 4.36483 17.1655 0.494387C17.2113 0.366549 17.2438 0.26268 17.4259 0.263679C19.0092 0.272668 20.592 0.268672 22.1752 0.269671C22.2151 0.269671 22.2545 0.276163 22.319 0.282155C22.2968 0.355063 22.284 0.416984 22.2604 0.474911C20.9476 3.69285 19.6331 6.91062 18.317 10.1282C17.1877 12.8914 16.0604 15.6567 14.9354 18.4242C14.8477 18.6415 14.7384 18.6984 14.5208 18.6969C13.0692 18.6869 11.6172 18.6869 10.1649 18.6969C9.95766 18.6969 9.86953 18.642 9.81686 18.4297C8.78597 14.3822 7.74967 10.3361 6.70795 6.29156C6.417 5.157 6.129 4.02193 5.82722 2.89086C5.78948 2.76876 5.71029 2.66419 5.60371 2.59574C4.15535 1.73183 2.6287 1.05318 0.997695 0.627721C0.93313 0.618793 0.871473 0.594866 0.817516 0.557808C0.795593 0.535485 0.778362 0.508884 0.766855 0.479617C0.755348 0.45035 0.749797 0.419021 0.750557 0.387522C0.754495 0.348071 0.819978 0.298635 0.867239 0.282655C0.931078 0.268642 0.996627 0.264433 1.0617 0.270171C3.52323 0.270171 5.98475 0.260685 8.44628 0.27267C9.2576 0.276665 9.99261 0.525348 10.3894 1.30536C10.5799 1.67989 10.6597 2.12083 10.7414 2.5413C11.3932 5.88441 12.0388 9.22886 12.6781 12.5746C12.6914 12.653 12.7136 12.7294 12.751 12.8837Z" fill="white"/>
<path d="M29.5592 13.8504C31.2089 14.899 32.9881 15.1877 34.852 15.0818C35.4368 15.0483 36.0059 14.9205 36.5288 14.6364C37.474 14.124 37.667 13.0664 36.8906 12.3183C36.4579 11.9013 35.9218 11.5857 35.4063 11.2696C34.5955 10.7703 33.7374 10.3418 32.9448 9.81346C31.8903 9.11085 31.0849 8.16555 30.9042 6.8567C30.5911 4.58457 31.3473 2.75138 33.25 1.45552C34.2839 0.75141 35.4432 0.375386 36.6602 0.177136C38.7102 -0.157441 40.7276 -0.0171157 42.7082 0.63556C42.9366 0.710965 43.0036 0.795357 42.9543 1.05303C42.7318 2.25152 42.5383 3.45849 42.3286 4.69543C42.2395 4.65598 42.1686 4.62352 42.0967 4.59256C40.4963 3.90093 38.8421 3.63926 37.1245 4.0078C36.7974 4.08293 36.4878 4.22202 36.2132 4.41728C35.5791 4.86372 35.5087 5.63674 36.0694 6.17406C36.4229 6.51213 36.8429 6.78778 37.2598 7.04696C38.2095 7.63721 39.1995 8.16305 40.1285 8.78426C41.0147 9.37602 41.7319 10.1635 42.0436 11.2162C42.6471 13.2556 42.1913 15.0708 40.734 16.5934C39.651 17.7205 38.2725 18.3102 36.7853 18.6513C34.4158 19.1951 32.066 19.1182 29.7517 18.3367C29.4652 18.2398 29.0856 18.1754 28.9448 17.9622C28.8222 17.7779 28.9635 17.4019 29.0108 17.1132C29.187 16.0311 29.3731 14.9515 29.5592 13.8504Z" fill="white"/>
<path d="M28.907 0.303586C27.9244 6.42918 26.9416 12.5536 25.9586 18.6769H21.229C21.3019 18.2025 21.3683 17.7451 21.4417 17.2886C21.8454 14.7785 22.2499 12.2685 22.6552 9.75864C23.1521 6.66555 23.647 3.57212 24.14 0.478365C24.1602 0.353023 24.1804 0.264635 24.3433 0.265633C25.8365 0.272125 27.3292 0.270628 28.8233 0.272625C28.8522 0.280035 28.8802 0.290408 28.907 0.303586Z" fill="white"/>
</g>
<defs>
<clipPath id="clip0_2480_4171">
<rect width="58" height="19" fill="white" transform="translate(0.75)"/>
</clipPath>
</defs>
</svg>
