<svg width="100%" height="100%" viewBox="0 0 70 123" fill="none" xmlns="http://www.w3.org/2000/svg">
<g clip-path="url(#clip0_173_2115)">
<path d="M67.07 41.19V51.95C67.07 65.71 57.49 76.86 45.68 76.86H23.12C11.31 76.86 1.73999 65.71 1.73999 51.95V41.19C9.81999 45.03 21.46 47.44 34.4 47.44C47.34 47.44 58.98 45.03 67.07 41.19Z" fill="#048737"/>
<path d="M45.68 78.36H23.12C10.46 78.36 0.240019 66.55 0.240019 51.95V41.19C0.238444 40.9368 0.301432 40.6873 0.423033 40.4652C0.544634 40.2431 0.720837 40.0556 0.935007 39.9205C1.14918 39.7854 1.39425 39.7071 1.64708 39.693C1.89991 39.679 2.15216 39.7295 2.38002 39.84C10.54 43.71 22.21 45.94 34.38 45.94C46.55 45.94 58.24 43.71 66.38 39.84C66.6085 39.7301 66.8612 39.68 67.1143 39.6942C67.3675 39.7085 67.6129 39.7867 67.8277 39.9215C68.0424 40.0564 68.2195 40.2434 68.3423 40.4653C68.4651 40.6871 68.5297 40.9364 68.53 41.19V51.95C68.57 66.55 58.3 78.36 45.68 78.36ZM3.24002 43.55V51.95C3.24002 64.86 12.16 75.36 23.12 75.36H45.68C56.68 75.36 65.57 64.86 65.57 51.95V43.55C57.19 47.02 46 48.99 34.4 48.99C22.8 48.99 11.61 46.97 3.24002 43.55Z" fill="#028738"/>
<path d="M66.3101 36.91C65.6471 36.91 65.0112 36.6466 64.5423 36.1777C64.0735 35.7089 63.8101 35.073 63.8101 34.41C63.8822 30.5028 63.1748 26.6205 61.7295 22.9898C60.2841 19.3591 58.1296 16.0529 55.392 13.2643C52.6543 10.4757 49.3884 8.26064 45.785 6.74856C42.1816 5.23648 38.3129 4.45768 34.4051 4.45768C30.4973 4.45768 26.6287 5.23648 23.0253 6.74856C19.4218 8.26064 16.1559 10.4757 13.4183 13.2643C10.6806 16.0529 8.52615 19.3591 7.08077 22.9898C5.63539 26.6205 4.92806 30.5028 5.00012 34.41C5.00012 35.073 4.73672 35.7089 4.26788 36.1777C3.79904 36.6466 3.16316 36.91 2.50012 36.91C1.83708 36.91 1.20119 36.6466 0.732349 36.1777C0.263508 35.7089 0.000117562 35.073 0.000117562 34.41C-0.0777546 29.8425 0.754609 25.3052 2.44866 21.0628C4.14271 16.8204 6.66454 12.9577 9.86706 9.70012C13.0696 6.44254 16.8887 3.85523 21.1016 2.08911C25.3145 0.322981 29.837 -0.586609 34.4051 -0.586609C38.9733 -0.586609 43.4957 0.322981 47.7086 2.08911C51.9216 3.85523 55.7407 6.44254 58.9432 9.70012C62.1457 12.9577 64.6675 16.8204 66.3616 21.0628C68.0556 25.3052 68.888 29.8425 68.8101 34.41C68.8101 35.073 68.5467 35.7089 68.0779 36.1777C67.609 36.6466 66.9732 36.91 66.3101 36.91Z" fill="#048737"/>
<path d="M47.76 30.25C47.68 31.48 47.4 37.37 43.57 40.95C41.9118 42.3875 39.9046 43.3635 37.75 43.78C37.1165 43.8595 36.4782 43.8929 35.8399 43.88C33.3988 43.9159 30.9992 43.2456 28.93 41.95L28.83 41.88C27.8795 41.1774 27.0314 40.3461 26.3099 39.41C24.6751 37.1427 23.3783 34.65 22.46 32.01C21.4869 29.0179 21.0139 25.8859 21.0599 22.74C24.7999 23.45 31.7599 25.4 36.8399 31.4C37.6549 32.36 38.3875 33.387 39.03 34.47C41.5719 32.4031 44.5612 30.9581 47.76 30.25Z" fill="#91BC46"/>
<path d="M13.17 89.95H6.03996V94.55H12.04C12.4844 94.5201 12.9246 94.6514 13.28 94.92C13.416 95.0475 13.5231 95.2028 13.5938 95.3754C13.6646 95.5479 13.6973 95.7337 13.69 95.92C13.701 96.1077 13.6689 96.2955 13.5961 96.4688C13.5233 96.6422 13.4117 96.7965 13.27 96.92C12.9199 97.1913 12.4816 97.3231 12.04 97.29H6.03996V103.18C6.08712 103.778 5.90476 104.372 5.52996 104.84C5.36051 105.013 5.15824 105.15 4.93502 105.244C4.71179 105.338 4.47209 105.386 4.22996 105.386C3.98783 105.386 3.74813 105.338 3.52491 105.244C3.30168 105.15 3.09942 105.013 2.92996 104.84C2.5567 104.375 2.37438 103.785 2.41996 103.19V89.38C2.40358 88.945 2.48206 88.5116 2.64996 88.11C2.79825 87.7897 3.05758 87.5339 3.37996 87.39C3.77895 87.225 4.20842 87.1466 4.63996 87.16H13.17C13.6338 87.1222 14.0948 87.2616 14.46 87.55C14.5989 87.6758 14.7085 87.8305 14.7811 88.0033C14.8537 88.1761 14.8874 88.3628 14.88 88.55C14.8841 88.7369 14.8489 88.9225 14.7765 89.0948C14.7042 89.2671 14.5963 89.4222 14.46 89.55C14.0939 89.8377 13.6346 89.9801 13.17 89.95Z" fill="#91BC46"/>
<path d="M4.24007 105.55C3.95986 105.556 3.68153 105.503 3.42312 105.394C3.16471 105.286 2.932 105.124 2.74007 104.92C2.3264 104.407 2.12268 103.757 2.17007 103.1V89.38C2.16392 88.9043 2.26295 88.433 2.46007 88C2.63143 87.6291 2.9292 87.3314 3.30008 87.16C3.7334 86.979 4.20073 86.8937 4.67007 86.91H13.2001C13.7231 86.8699 14.2417 87.0309 14.6501 87.36C14.8126 87.5109 14.9398 87.6958 15.0228 87.9015C15.1057 88.1072 15.1424 88.3286 15.1301 88.55C15.138 88.7752 15.0965 88.9993 15.0083 89.2067C14.9202 89.414 14.7877 89.5995 14.6201 89.75C14.2117 90.0791 13.6931 90.2401 13.1701 90.2H6.29008V94.27H12.0001C12.5084 94.2364 13.0111 94.3932 13.4101 94.71C13.572 94.8598 13.6996 95.0427 13.7841 95.2464C13.8687 95.4501 13.9083 95.6696 13.9001 95.89C13.9076 96.1098 13.8667 96.3285 13.7803 96.5307C13.6939 96.7328 13.5641 96.9136 13.4001 97.06C12.9997 97.3659 12.5031 97.5184 12.0001 97.49H6.29008V103.13C6.33904 103.79 6.13529 104.444 5.72007 104.96C5.52697 105.155 5.29596 105.307 5.04136 105.409C4.78677 105.51 4.51403 105.558 4.24007 105.55ZM4.64008 87.38C4.244 87.3694 3.84974 87.4374 3.48008 87.58C3.21623 87.7039 3.004 87.9162 2.88007 88.18C2.72654 88.5503 2.6549 88.9494 2.67007 89.35V103.1C2.62648 103.631 2.78347 104.159 3.11008 104.58C3.25689 104.728 3.43142 104.845 3.62362 104.925C3.81583 105.004 4.02193 105.046 4.23008 105.046C4.43822 105.046 4.64432 105.004 4.83653 104.925C5.02873 104.845 5.20326 104.728 5.35007 104.58C5.67646 104.155 5.83329 103.624 5.79008 103.09V96.95H12.0001C12.381 96.9802 12.7603 96.8738 13.0701 96.65C13.2808 96.435 13.3988 96.146 13.3988 95.845C13.3988 95.544 13.2808 95.255 13.0701 95.04C12.7625 94.811 12.3825 94.7009 12.0001 94.73H5.79008V89.7H13.1701C13.5699 89.7331 13.9681 89.6193 14.2901 89.38C14.5081 89.1608 14.6305 88.8642 14.6305 88.555C14.6305 88.2458 14.5081 87.9492 14.2901 87.73C13.9681 87.4907 13.5699 87.377 13.1701 87.41L4.64008 87.38Z" fill="#91BC46"/>
<path d="M27.1199 103L26.2699 100.76H19.0099L18.1499 103.05C17.9482 103.688 17.6623 104.297 17.2999 104.86C17.16 105.028 16.981 105.158 16.7787 105.24C16.5764 105.322 16.357 105.353 16.1399 105.33C15.6897 105.328 15.2585 105.148 14.9399 104.83C14.7771 104.689 14.6458 104.516 14.5544 104.322C14.4631 104.127 14.4139 103.915 14.4099 103.7C14.4114 103.442 14.4519 103.186 14.5299 102.94C14.6199 102.68 14.7499 102.32 14.9399 101.86L19.5099 90.26C19.6399 89.92 19.7899 89.52 19.9799 89.06C20.1285 88.6494 20.3231 88.2569 20.5599 87.89C20.7699 87.5785 21.051 87.3215 21.3799 87.14C21.765 86.9393 22.196 86.8427 22.6299 86.86C23.067 86.8437 23.5009 86.9402 23.8899 87.14C24.2152 87.3184 24.493 87.5721 24.6999 87.88C24.9156 88.1912 25.0935 88.5269 25.2299 88.88C25.3699 89.22 25.5499 89.69 25.7699 90.26L30.4599 101.76C30.7482 102.362 30.934 103.007 31.0099 103.67C31.005 103.885 30.9563 104.097 30.8669 104.293C30.7776 104.489 30.6493 104.665 30.4899 104.81C30.3287 104.978 30.1344 105.111 29.9193 105.201C29.7041 105.29 29.4729 105.334 29.2399 105.33C28.9883 105.337 28.7385 105.285 28.5099 105.18C28.3113 105.083 28.1369 104.943 27.9999 104.77C27.819 104.518 27.668 104.247 27.5499 103.96C27.3699 103.6 27.2399 103.28 27.1199 103ZM19.9599 98H25.2999L22.5999 90.63L19.9599 98Z" fill="#91BC46"/>
<path d="M29.2199 105.55C28.9296 105.557 28.6417 105.496 28.3799 105.37C28.1472 105.256 27.9424 105.092 27.7799 104.89C27.5851 104.624 27.4239 104.335 27.2999 104.03C27.1399 103.67 27.0099 103.35 26.8899 103.03L26.0999 100.95H19.1799L18.3899 103.08C18.1714 103.738 17.8725 104.366 17.4999 104.95C17.3367 105.148 17.1275 105.304 16.8905 105.403C16.6535 105.503 16.3959 105.543 16.1399 105.52C15.6236 105.515 15.1291 105.311 14.7599 104.95C14.5751 104.785 14.4264 104.583 14.3231 104.358C14.2199 104.132 14.1643 103.888 14.1599 103.64C14.1634 103.358 14.2106 103.078 14.2999 102.81C14.4174 102.433 14.5542 102.063 14.7099 101.7L19.7099 88.91C19.8725 88.4842 20.0768 88.0755 20.3199 87.69C20.549 87.3477 20.8579 87.0663 21.2199 86.87C21.6496 86.6598 22.1216 86.5505 22.5999 86.5505C23.0782 86.5505 23.5503 86.6598 23.9799 86.87C24.3395 87.0654 24.6478 87.3429 24.8799 87.68C25.0975 87.9933 25.2819 88.3284 25.4299 88.68C25.5699 89.03 25.7499 89.49 25.9699 90.07L30.6399 101.6C30.9449 102.228 31.1378 102.905 31.2099 103.6C31.2052 103.848 31.1506 104.093 31.0492 104.32C30.9478 104.547 30.8018 104.751 30.6199 104.92C30.4396 105.112 30.223 105.267 29.9828 105.375C29.7425 105.483 29.4833 105.542 29.2199 105.55ZM27.3599 102.88C27.4699 103.15 27.5999 103.47 27.7599 103.88C27.8694 104.144 28.0068 104.395 28.1699 104.63C28.2871 104.776 28.4336 104.895 28.5999 104.98C28.7953 105.065 29.007 105.106 29.2199 105.1C29.419 105.105 29.6169 105.068 29.801 104.992C29.9852 104.916 30.1517 104.803 30.2899 104.66C30.4307 104.534 30.5435 104.38 30.621 104.208C30.6985 104.035 30.739 103.849 30.7399 103.66C30.6659 103.031 30.4867 102.419 30.2099 101.85L25.5399 90.33C25.3199 89.75 25.1399 89.33 24.9999 88.94C24.8631 88.618 24.6957 88.3099 24.4999 88.02C24.3093 87.7479 24.0598 87.5223 23.7699 87.36C23.4174 87.1809 23.025 87.0948 22.6299 87.11C22.238 87.0947 21.8488 87.1808 21.4999 87.36C21.2075 87.5231 20.9575 87.7526 20.7699 88.03C20.5396 88.3799 20.3517 88.7558 20.2099 89.15L19.7399 90.35L15.1699 101.95C14.9799 102.41 14.8499 102.77 14.7699 103.02C14.7 103.24 14.663 103.469 14.6599 103.7C14.664 103.881 14.7062 104.059 14.7838 104.223C14.8613 104.387 14.9724 104.532 15.1099 104.65C15.3735 104.92 15.7329 105.074 16.1099 105.08C16.2942 105.106 16.4822 105.086 16.6568 105.022C16.8314 104.957 16.9871 104.85 17.1099 104.71C17.4546 104.166 17.7301 103.582 17.9299 102.97L18.8399 100.51H26.4599L27.3599 102.88ZM25.6499 98.26H19.6499L22.6499 89.91L25.6499 98.26ZM20.3099 97.76H24.9399L22.5999 91.38L20.3099 97.76Z" fill="#91BC46"/>
<path d="M38.5099 97.39H37.2399V103.13C37.2865 103.729 37.1083 104.325 36.7399 104.8C36.5716 104.976 36.3677 105.114 36.1419 105.206C35.916 105.297 35.6734 105.339 35.4299 105.33C35.179 105.342 34.9285 105.298 34.6967 105.201C34.4649 105.104 34.2576 104.957 34.0899 104.77C33.7466 104.295 33.5803 103.715 33.6199 103.13V89.38C33.5629 88.767 33.7497 88.1562 34.1399 87.68C34.6182 87.2936 35.2274 87.1073 35.8399 87.16H41.7199C42.4182 87.1552 43.1161 87.1919 43.8099 87.27C44.3484 87.3232 44.8749 87.4616 45.3699 87.68C45.9244 87.9125 46.4273 88.2524 46.8499 88.68C47.2846 89.1161 47.625 89.6369 47.8499 90.21C48.0717 90.798 48.1836 91.4217 48.1799 92.05C48.2353 93.2233 47.8298 94.3717 47.0499 95.25C46.1053 96.1438 44.9137 96.7326 43.6299 96.94C44.3311 97.3298 44.9521 97.849 45.4599 98.47C46.0435 99.1336 46.5688 99.8462 47.0299 100.6C47.4363 101.239 47.7939 101.907 48.0999 102.6C48.2977 102.992 48.4295 103.415 48.4899 103.85C48.4841 104.101 48.4041 104.345 48.2599 104.55C48.1098 104.785 47.899 104.975 47.6499 105.1C47.3666 105.237 47.0548 105.306 46.7399 105.3C46.3861 105.309 46.0378 105.211 45.7399 105.02C45.4621 104.82 45.2217 104.573 45.0299 104.29C44.8299 104.003 44.5599 103.573 44.2199 103L42.7699 100.59C42.3645 99.8825 41.896 99.2131 41.3699 98.59C41.0364 98.1643 40.6085 97.822 40.1199 97.59C39.6009 97.4213 39.0544 97.3534 38.5099 97.39ZM40.5799 89.88H37.2399V94.79H40.4599C41.1968 94.8081 41.9329 94.7308 42.6499 94.56C43.1717 94.4554 43.6474 94.1896 44.0099 93.8C44.3468 93.3754 44.5143 92.841 44.4799 92.3C44.4919 91.8394 44.3621 91.3862 44.1082 91.0016C43.8542 90.6171 43.4883 90.3199 43.0599 90.15C42.254 89.9231 41.4159 89.8319 40.5799 89.88Z" fill="#91BC46"/>
<path d="M46.74 105.55C46.3286 105.562 45.9235 105.447 45.58 105.22C45.2743 105.006 45.01 104.738 44.8 104.43C44.6 104.14 44.33 103.71 43.98 103.13L42.53 100.71C42.1375 100.002 41.6788 99.3319 41.16 98.71C40.8471 98.332 40.4544 98.028 40.01 97.82C39.5278 97.6542 39.0197 97.5763 38.51 97.59H37.46V103.08C37.5095 103.743 37.3059 104.401 36.89 104.92C36.7061 105.116 36.4848 105.272 36.2391 105.38C35.9934 105.489 35.7284 105.546 35.46 105.55C35.1726 105.563 34.8858 105.512 34.621 105.399C34.3562 105.287 34.12 105.116 33.93 104.9C33.547 104.381 33.3593 103.744 33.4 103.1V89.38C33.3447 89.0432 33.3704 88.698 33.4749 88.373C33.5795 88.0481 33.7599 87.7527 34.0013 87.5113C34.2427 87.2699 34.5381 87.0895 34.863 86.9849C35.188 86.8804 35.5332 86.8547 35.87 86.91H41.75C42.4582 86.9052 43.1661 86.942 43.87 87.02C44.4325 87.0833 44.9821 87.2317 45.5 87.46C46.0782 87.7167 46.5985 88.0874 47.03 88.55C47.4673 89.0185 47.8072 89.5691 48.03 90.17C48.2622 90.7869 48.3808 91.4408 48.38 92.1C48.4409 93.3378 48.0095 94.5493 47.18 95.47C46.3473 96.2746 45.3095 96.835 44.18 97.09C44.6918 97.4417 45.1557 97.8586 45.56 98.33C46.1504 99.0071 46.6823 99.733 47.15 100.5C47.5967 101.151 47.9912 101.837 48.33 102.55C48.5442 102.973 48.683 103.43 48.74 103.9C48.735 104.201 48.6411 104.493 48.47 104.74C48.2963 105.012 48.0505 105.23 47.76 105.37C47.4386 105.509 47.0894 105.57 46.74 105.55ZM36.99 97.11H38.51C39.0853 97.0935 39.6585 97.1851 40.2 97.38C40.7161 97.6086 41.1741 97.9503 41.54 98.38C42.0798 99.0184 42.5554 99.7084 42.96 100.44L44.46 102.9C44.81 103.48 45.07 103.9 45.26 104.18C45.4346 104.438 45.6549 104.662 45.91 104.84C46.1625 104.984 46.4459 105.066 46.7365 105.078C47.027 105.09 47.3163 105.033 47.58 104.91C47.788 104.801 47.9665 104.643 48.1 104.45C48.2203 104.284 48.2866 104.085 48.29 103.88C48.2314 103.479 48.1064 103.09 47.92 102.73C47.6365 102.04 47.3022 101.371 46.92 100.73C46.4656 99.9886 45.9505 99.2862 45.38 98.63C44.8788 98.0475 44.2798 97.5568 43.61 97.18L43 96.86L43.67 96.72C44.9044 96.516 46.0498 95.9485 46.96 95.09C47.6894 94.2655 48.0695 93.1897 48.02 92.09C48.0212 91.492 47.9128 90.8989 47.7 90.34C47.496 89.7987 47.1828 89.3052 46.78 88.89C46.3774 88.4833 45.8982 88.1604 45.37 87.94C44.865 87.7235 44.3278 87.5918 43.78 87.55C43.0956 87.4807 42.4079 87.4473 41.72 87.45H35.84C35.5641 87.3842 35.2759 87.3901 35.003 87.4673C34.73 87.5445 34.4814 87.6903 34.2809 87.8909C34.0803 88.0914 33.9345 88.3401 33.8573 88.613C33.7801 88.8859 33.7742 89.1741 33.84 89.45V103.2C33.8018 103.727 33.9505 104.251 34.26 104.68C34.4006 104.841 34.5767 104.968 34.7746 105.049C34.9724 105.131 35.1866 105.165 35.4 105.15C35.6104 105.159 35.8203 105.123 36.0154 105.044C36.2104 104.964 36.386 104.844 36.53 104.69C36.852 104.263 37.0051 103.733 36.96 103.2L36.99 97.11ZM40.48 95.01H36.99V89.63H40.58C41.4537 89.5731 42.3305 89.6713 43.17 89.92C43.6466 90.1054 44.0543 90.4336 44.3371 90.8597C44.62 91.2857 44.7642 91.7888 44.75 92.3C44.7809 92.8994 44.5925 93.4894 44.22 93.96C43.8232 94.3907 43.3026 94.6877 42.73 94.81C41.9852 94.977 41.2231 95.0542 40.46 95.04L40.48 95.01ZM37.48 94.51H40.48C41.1964 94.5257 41.9119 94.4518 42.61 94.29C43.0829 94.1964 43.5137 93.9548 43.84 93.6C44.1315 93.2201 44.277 92.7481 44.25 92.27C44.259 91.8559 44.1441 91.4485 43.92 91.1C43.6882 90.7621 43.361 90.501 42.98 90.35C42.2013 90.1245 41.3885 90.0398 40.58 90.1H37.46L37.48 94.51Z" fill="#91BC46"/>
<path d="M57.6301 102.33L54.7601 90.95V103.28C54.8026 103.831 54.6426 104.379 54.3101 104.82C54.1528 104.98 53.9653 105.107 53.7584 105.194C53.5515 105.28 53.3294 105.325 53.1051 105.325C52.8808 105.325 52.6587 105.28 52.4518 105.194C52.2449 105.107 52.0574 104.98 51.9001 104.82C51.5592 104.379 51.3951 103.826 51.4401 103.27V89.15C51.4023 88.8576 51.4372 88.5603 51.5419 88.2847C51.6466 88.0091 51.8177 87.7636 52.0401 87.57C52.5391 87.2771 53.1121 87.1347 53.6901 87.16H54.8101C55.3068 87.1347 55.8042 87.1956 56.2801 87.34C56.5823 87.4657 56.8254 87.7017 56.9601 88C57.162 88.5046 57.3291 89.0225 57.4601 89.55L60.0501 99.34L62.6501 89.55C62.7764 89.0212 62.9436 88.5029 63.1501 88C63.2781 87.7005 63.5188 87.4635 63.8201 87.34C64.2964 87.1972 64.7934 87.1363 65.2901 87.16H66.4601C67.0381 87.1347 67.6111 87.2771 68.1101 87.57C68.3343 87.7625 68.5074 88.0076 68.6138 88.2833C68.7202 88.559 68.7568 88.8567 68.7201 89.15V103.28C68.7645 103.833 68.6004 104.382 68.2601 104.82C68.1035 104.981 67.9162 105.109 67.7092 105.197C67.5022 105.284 67.2798 105.329 67.0551 105.329C66.8304 105.329 66.608 105.284 66.401 105.197C66.194 105.109 66.0067 104.981 65.8501 104.82C65.5141 104.38 65.3505 103.832 65.3901 103.28V90.95L62.4601 102.33C62.2701 103.07 62.1201 103.62 62.0001 103.96C61.8679 104.324 61.6441 104.648 61.3501 104.9C60.9806 105.206 60.5087 105.359 60.0301 105.33C59.6552 105.342 59.2844 105.249 58.9601 105.06C58.6806 104.884 58.4474 104.644 58.2801 104.36C58.1058 104.046 57.9746 103.709 57.8901 103.36C57.8201 103.07 57.7201 102.71 57.6301 102.33Z" fill="#91BC46"/>
<path d="M66.9899 105.55C66.7326 105.556 66.4769 105.506 66.2405 105.404C66.0041 105.303 65.7924 105.151 65.6199 104.96C65.2365 104.476 65.0475 103.866 65.0899 103.25V92.97L62.7199 102.39C62.5299 103.15 62.3799 103.69 62.2599 104.04C62.1141 104.446 61.8662 104.808 61.5399 105.09C61.1222 105.434 60.5904 105.609 60.0499 105.58C59.6284 105.594 59.2117 105.487 58.8499 105.27C58.5314 105.075 58.2667 104.803 58.0799 104.48C57.9032 104.165 57.7655 103.829 57.6699 103.48C57.5799 103.13 57.4799 102.77 57.3899 102.4L55.0199 92.98V103.29C55.0651 103.905 54.8797 104.514 54.4999 105C54.3199 105.187 54.104 105.336 53.8651 105.437C53.6263 105.539 53.3694 105.591 53.1099 105.591C52.8504 105.591 52.5935 105.539 52.3547 105.437C52.1158 105.336 51.9 105.187 51.7199 105C51.3374 104.516 51.1517 103.905 51.1999 103.29V89.15C51.1592 88.8151 51.2039 88.4754 51.3298 88.1624C51.4557 87.8495 51.6587 87.5734 51.9199 87.36C52.4549 87.0354 53.0749 86.8787 53.6999 86.91H54.8199C55.3476 86.8848 55.8756 86.9525 56.3799 87.11C56.5607 87.1811 56.7255 87.2877 56.8645 87.4233C57.0036 87.559 57.1142 87.721 57.1899 87.9C57.4114 88.413 57.5855 88.9452 57.7099 89.49L60.0599 98.36L62.4599 89.49C62.5867 88.9471 62.7573 88.4154 62.9699 87.9C63.1255 87.5404 63.4165 87.2566 63.7799 87.11C64.2845 86.9541 64.8123 86.8864 65.3399 86.91H66.4599C67.0879 86.8803 67.7106 87.0369 68.2499 87.36C68.5111 87.5734 68.7141 87.8495 68.84 88.1624C68.9659 88.4754 69.0106 88.8151 68.9699 89.15V103.28C69.0104 103.894 68.8255 104.502 68.4499 104.99C68.263 105.185 68.0352 105.337 67.7827 105.434C67.5303 105.531 67.2595 105.57 66.9899 105.55ZM65.5899 88.9V103.25C65.5502 103.74 65.6926 104.228 65.9899 104.62C66.1209 104.752 66.2767 104.856 66.4484 104.928C66.62 104.999 66.804 105.036 66.9899 105.036C67.1758 105.036 67.3598 104.999 67.5314 104.928C67.7031 104.856 67.8589 104.752 67.9899 104.62C68.2872 104.228 68.4296 103.74 68.3899 103.25V89.15C68.4245 88.8982 68.397 88.6417 68.3099 88.403C68.2227 88.1642 68.0785 87.9503 67.8899 87.78C67.4351 87.5079 66.909 87.379 66.3799 87.41H65.2899C64.8268 87.3868 64.3633 87.4443 63.9199 87.58C63.6737 87.6769 63.4759 87.8675 63.3699 88.11C63.1719 88.597 63.0114 89.0985 62.8899 89.61L60.0499 100.31L57.2099 89.61C57.09 89.098 56.9294 88.5965 56.7299 88.11C56.6263 87.8694 56.4324 87.6791 56.1899 87.58C55.743 87.445 55.2762 87.3875 54.8099 87.41H53.6899C53.161 87.3802 52.6352 87.509 52.1799 87.78C51.9924 87.9508 51.8496 88.1651 51.7642 88.4039C51.6787 88.6428 51.6532 88.899 51.6899 89.15V103.28C51.6449 103.772 51.7838 104.264 52.0799 104.66C52.2081 104.796 52.3633 104.903 52.5355 104.976C52.7077 105.048 52.8932 105.084 53.0799 105.08C53.2679 105.086 53.4547 105.05 53.6275 104.976C53.8002 104.901 53.9546 104.79 54.0799 104.65C54.3736 104.257 54.5124 103.769 54.4699 103.28V88.93L57.8299 102.27C57.9299 102.64 58.0199 103 58.1099 103.35C58.1932 103.657 58.3141 103.953 58.4699 104.23C58.6164 104.48 58.8225 104.689 59.0699 104.84C59.3539 105.008 59.6801 105.091 60.0099 105.08C60.4247 105.107 60.8347 104.979 61.1599 104.72C61.4206 104.493 61.6201 104.204 61.7399 103.88C61.8599 103.55 62.0099 103 62.1999 102.27L65.5899 88.9Z" fill="#91BC46"/>
<path d="M7.56992 122.66H3.93992C3.73854 122.68 3.53525 122.658 3.34261 122.596C3.14998 122.534 2.97208 122.433 2.81992 122.3C2.5683 121.983 2.44672 121.583 2.47992 121.18V112.26C2.4609 112.058 2.48203 111.854 2.54209 111.66C2.60216 111.466 2.69998 111.286 2.82992 111.13C2.98288 111.002 3.15964 110.905 3.3501 110.845C3.54055 110.784 3.74098 110.763 3.93992 110.78H7.78992C8.28213 110.776 8.77385 110.812 9.25992 110.89C9.65551 110.95 10.0358 111.086 10.3799 111.29C10.6635 111.46 10.9169 111.677 11.1299 111.93C11.3403 112.183 11.506 112.471 11.6199 112.78C11.7343 113.101 11.7918 113.439 11.7899 113.78C11.7989 114.346 11.6326 114.9 11.3139 115.367C10.9952 115.835 10.5397 116.192 10.0099 116.39C10.6785 116.521 11.2795 116.884 11.7073 117.414C12.1352 117.945 12.3627 118.609 12.3499 119.29C12.3581 119.924 12.1808 120.546 11.8399 121.08C11.5097 121.599 11.028 122.004 10.4599 122.24C10.0593 122.402 9.63896 122.509 9.20992 122.56C8.66594 122.628 8.11816 122.662 7.56992 122.66ZM4.88992 112.55V115.62H7.08992C7.55925 115.635 8.02814 115.578 8.47992 115.45C8.80604 115.341 9.07572 115.107 9.22992 114.8C9.3625 114.569 9.4315 114.307 9.42992 114.04C9.46092 113.8 9.41586 113.556 9.30107 113.342C9.18628 113.129 9.00754 112.957 8.78992 112.85C8.16786 112.615 7.50371 112.513 6.83992 112.55H4.88992ZM7.38992 117.34H4.88992V120.81H7.45992C9.08992 120.81 9.89992 120.22 9.89992 119.05C9.91976 118.797 9.87187 118.543 9.76115 118.315C9.65043 118.086 9.48088 117.891 9.26992 117.75C8.68918 117.456 8.03868 117.328 7.38992 117.38V117.34Z" fill="#048737"/>
<path d="M21.3901 121.31L20.8301 119.82H16.0001L15.4601 121.34C15.3217 121.764 15.1338 122.17 14.9001 122.55C14.804 122.657 14.6847 122.741 14.5512 122.795C14.4177 122.848 14.2736 122.871 14.1301 122.86C13.8272 122.861 13.5361 122.742 13.3201 122.53C13.2121 122.435 13.1259 122.318 13.0672 122.187C13.0086 122.056 12.9788 121.914 12.9801 121.77C12.978 121.6 13.0051 121.431 13.0601 121.27C13.0601 121.1 13.2001 120.86 13.3201 120.55L16.3201 112.84C16.4101 112.62 16.5101 112.35 16.6301 112.04C16.7376 111.773 16.8681 111.515 17.0201 111.27C17.1605 111.061 17.3491 110.89 17.5701 110.77C17.9344 110.566 18.3609 110.503 18.7685 110.594C19.1761 110.684 19.5361 110.921 19.7801 111.26C19.9129 111.462 20.0268 111.677 20.1201 111.9C20.2201 112.13 20.3401 112.44 20.4801 112.82L23.5901 120.49C23.7827 120.889 23.9045 121.319 23.9501 121.76C23.9499 121.902 23.9195 122.042 23.8609 122.172C23.8022 122.301 23.7168 122.416 23.6101 122.51C23.5028 122.622 23.3738 122.71 23.2311 122.77C23.0884 122.831 22.935 122.861 22.7801 122.86C22.6116 122.861 22.4448 122.827 22.2901 122.76C22.1574 122.693 22.0412 122.597 21.9501 122.48C21.8298 122.317 21.7323 122.139 21.6601 121.95C21.5601 121.71 21.4601 121.49 21.3901 121.31ZM16.6301 118.02H20.1801L18.3901 113.12L16.6301 118.02Z" fill="#048737"/>
<path d="M34.7501 119.09C34.758 119.778 34.5633 120.452 34.1901 121.03C33.7923 121.625 33.2292 122.091 32.5701 122.37C31.7691 122.716 30.9023 122.883 30.0301 122.86C29.024 122.901 28.0255 122.67 27.1401 122.19C26.6036 121.88 26.1505 121.444 25.8201 120.92C25.5042 120.463 25.3271 119.925 25.3101 119.37C25.31 119.229 25.3381 119.09 25.3926 118.96C25.4471 118.83 25.527 118.712 25.6276 118.613C25.7281 118.515 25.8473 118.437 25.9783 118.385C26.1092 118.333 26.2492 118.307 26.3901 118.31C26.6265 118.304 26.856 118.39 27.0301 118.55C27.2359 118.75 27.3903 118.997 27.4801 119.27C27.6105 119.603 27.7746 119.921 27.9701 120.22C28.1664 120.483 28.4193 120.698 28.7101 120.85C29.1955 121.045 29.7199 121.122 30.241 121.077C30.7621 121.032 31.2653 120.865 31.7101 120.59C31.9148 120.454 32.0829 120.27 32.1998 120.054C32.3166 119.837 32.3785 119.596 32.3801 119.35C32.3897 119.168 32.3628 118.985 32.301 118.814C32.2392 118.642 32.1436 118.484 32.0201 118.35C31.7519 118.096 31.4309 117.905 31.0801 117.79C30.5811 117.626 30.0737 117.489 29.5601 117.38C28.8254 117.218 28.1086 116.983 27.4201 116.68C26.8756 116.439 26.4035 116.059 26.0501 115.58C25.6967 115.078 25.5176 114.474 25.5401 113.86C25.5324 113.239 25.7176 112.631 26.0701 112.12C26.4616 111.587 27.0004 111.181 27.6201 110.95C28.3802 110.664 29.1879 110.525 30.0001 110.54C30.6405 110.527 31.2789 110.618 31.8901 110.81C32.3759 110.961 32.8277 111.206 33.2201 111.53C33.5447 111.805 33.8072 112.146 33.9901 112.53C34.1483 112.84 34.2306 113.182 34.2301 113.53C34.2309 113.815 34.1237 114.09 33.9301 114.3C33.8362 114.41 33.7196 114.498 33.5884 114.558C33.4572 114.619 33.3145 114.65 33.1701 114.65C33.0564 114.659 32.9421 114.644 32.834 114.608C32.7258 114.572 32.6259 114.515 32.5401 114.44C32.354 114.241 32.199 114.015 32.0801 113.77C31.891 113.387 31.6256 113.047 31.3001 112.77C30.8706 112.481 30.3557 112.347 29.8401 112.39C29.3095 112.366 28.7849 112.51 28.3401 112.8C28.1676 112.904 28.0246 113.051 27.9249 113.226C27.8251 113.401 27.7718 113.599 27.7701 113.8C27.7628 114.022 27.8296 114.24 27.9601 114.42C28.1056 114.605 28.2899 114.755 28.5001 114.86C28.7122 114.988 28.9411 115.085 29.1801 115.15C29.4201 115.22 29.8001 115.33 30.3301 115.46C30.9452 115.602 31.5527 115.776 32.1501 115.98C32.6439 116.143 33.1119 116.375 33.5401 116.67C33.9104 116.93 34.2151 117.272 34.4301 117.67C34.6395 118.114 34.7488 118.599 34.7501 119.09Z" fill="#048737"/>
<path d="M39.2099 112.04V116.2L43.9299 111.28C44.1061 111.085 44.3003 110.908 44.5099 110.75C44.7007 110.629 44.9242 110.57 45.1499 110.58C45.4553 110.567 45.7536 110.675 45.9799 110.88C46.0829 110.976 46.1647 111.092 46.2198 111.221C46.275 111.35 46.3023 111.49 46.2999 111.63C46.2802 111.824 46.2224 112.012 46.1297 112.184C46.0371 112.356 45.9114 112.507 45.7599 112.63L42.8399 115.4L46.2099 120.23C46.4125 120.503 46.5899 120.795 46.7399 121.1C46.8535 121.33 46.915 121.583 46.9199 121.84C46.9201 121.97 46.8926 122.099 46.8391 122.218C46.7857 122.337 46.7075 122.444 46.6099 122.53C46.3738 122.731 46.0698 122.835 45.7599 122.82C45.4703 122.834 45.1836 122.757 44.9399 122.6C44.7242 122.45 44.5434 122.256 44.4099 122.03C44.2599 121.8 44.1299 121.58 44.0199 121.38L41.1799 117.01L39.1799 118.9V121.35C39.2147 121.75 39.0928 122.148 38.8399 122.46C38.7285 122.578 38.5934 122.671 38.4434 122.733C38.2935 122.795 38.1321 122.825 37.9699 122.82C37.7598 122.817 37.5538 122.762 37.3699 122.66C37.1911 122.553 37.043 122.401 36.9399 122.22C36.8595 122.054 36.812 121.874 36.7999 121.69C36.7999 121.49 36.7999 121.2 36.7999 120.83V112C36.7681 111.607 36.882 111.215 37.1199 110.9C37.2293 110.779 37.364 110.684 37.5145 110.622C37.6649 110.56 37.8273 110.532 37.9899 110.54C38.1524 110.533 38.3143 110.562 38.4646 110.624C38.6148 110.686 38.7497 110.78 38.8599 110.9C38.9911 111.057 39.0896 111.239 39.1497 111.435C39.2098 111.631 39.2303 111.836 39.2099 112.04Z" fill="#048737"/>
<path d="M56.8901 112.64H51.4601V115.55H56.4601C56.7548 115.53 57.0468 115.619 57.2801 115.8C57.3689 115.883 57.4389 115.984 57.4855 116.096C57.5321 116.208 57.5541 116.329 57.55 116.45C57.5537 116.572 57.5325 116.693 57.4878 116.807C57.4431 116.92 57.3758 117.023 57.2901 117.11C57.0566 117.299 56.7597 117.392 56.4601 117.37H51.4601V120.74H57.0701C57.3775 120.717 57.6819 120.814 57.92 121.01C58.0164 121.099 58.0922 121.207 58.1423 121.328C58.1924 121.449 58.2155 121.579 58.2101 121.71C58.2139 121.838 58.19 121.965 58.1399 122.082C58.0898 122.199 58.0148 122.304 57.92 122.39C57.6819 122.586 57.3775 122.683 57.0701 122.66H50.5401C50.3378 122.698 50.1293 122.686 49.9328 122.625C49.7363 122.564 49.5577 122.456 49.4127 122.31C49.2676 122.164 49.1606 121.984 49.1009 121.787C49.0411 121.591 49.0306 121.382 49.0701 121.18V112.26C49.0595 111.969 49.1106 111.68 49.2201 111.41C49.3147 111.196 49.4858 111.025 49.7 110.93C49.966 110.82 50.2525 110.769 50.5401 110.78H56.8901C57.196 110.757 57.4995 110.85 57.74 111.04C57.8289 111.127 57.8995 111.232 57.9477 111.347C57.9959 111.462 58.0207 111.585 58.0207 111.71C58.0207 111.835 57.9959 111.958 57.9477 112.073C57.8995 112.188 57.8289 112.293 57.74 112.38C57.4995 112.57 57.196 112.663 56.8901 112.64Z" fill="#048737"/>
<path d="M67.8401 112.77H65.2101V121.39C65.2426 121.788 65.1248 122.184 64.8801 122.5C64.7719 122.619 64.6387 122.713 64.4901 122.776C64.3415 122.838 64.1811 122.867 64.0201 122.86C63.857 122.865 63.6947 122.834 63.5446 122.77C63.3944 122.707 63.2598 122.611 63.1501 122.49C62.9069 122.177 62.7892 121.785 62.8201 121.39V112.77H60.1901C59.8638 112.796 59.5395 112.7 59.2801 112.5C59.1815 112.408 59.1037 112.297 59.0519 112.173C59.0001 112.048 58.9757 111.915 58.9801 111.78C58.9726 111.643 58.9966 111.506 59.0504 111.379C59.1041 111.252 59.1861 111.14 59.2901 111.05C59.5477 110.854 59.8674 110.758 60.1901 110.78H67.8401C68.1736 110.759 68.5034 110.859 68.7701 111.06C68.8698 111.151 68.9483 111.262 69.0002 111.387C69.052 111.511 69.0759 111.645 69.0701 111.78C69.0754 111.916 69.0502 112.051 68.9966 112.175C68.943 112.3 68.8622 112.411 68.7601 112.5C68.4968 112.7 68.1695 112.796 67.8401 112.77Z" fill="#048737"/>
</g>
<defs>
<clipPath id="clip0_173_2115">
<rect width="69.07" height="122.86" fill="white"/>
</clipPath>
</defs>
</svg>
