<svg width="100%" height="100%" viewBox="0 0 209 368" fill="none" xmlns="http://www.w3.org/2000/svg">
<g clip-path="url(#clip0_173_133)">
<path d="M202.919 123.376V155.605C202.919 196.82 173.965 230.217 138.234 230.217H69.949C34.2181 230.217 5.14331 196.82 5.14331 155.605V123.376C29.5892 134.907 64.836 142.096 103.986 142.096C143.135 142.096 178.473 134.907 202.919 123.376Z" fill="white" stroke="white" stroke-width="3" stroke-linejoin="round"/>
<path d="M7.56372 103.068C7.56372 77.7183 17.7352 53.4073 35.8405 35.4827C53.9458 17.5581 78.5019 7.48819 104.107 7.48819C129.712 7.48819 154.268 17.5581 172.373 35.4827C190.478 53.4073 200.65 77.7183 200.65 103.068" stroke="white" stroke-width="12" stroke-miterlimit="10" stroke-linecap="round"/>
<path d="M144.527 90.6072C144.255 94.2914 143.438 111.964 131.82 122.657C126.825 126.978 120.758 129.904 114.242 131.133C112.316 131.372 110.374 131.472 108.433 131.433C101.047 131.545 93.7854 129.538 87.527 125.652L87.2245 125.442C84.3535 123.343 81.7968 120.852 79.6305 118.044C74.6709 111.267 70.7367 103.81 67.9521 95.9089C65.015 86.9343 63.5741 77.5459 63.6862 68.1127C75.0318 70.2393 96.0589 76.0801 111.428 94.0518C113.903 96.927 116.13 100.003 118.084 103.247C125.789 97.0598 134.842 92.7323 144.527 90.6072Z" fill="white"/>
<path d="M39.8758 269.425H18.3042V283.114H36.4571C37.7982 283.014 39.1276 283.421 40.1784 284.252C40.6019 284.625 40.9338 285.088 41.1487 285.607C41.3637 286.127 41.4561 286.687 41.4189 287.247C41.4432 287.806 41.3449 288.363 41.1307 288.88C40.9166 289.397 40.5917 289.862 40.1784 290.243C39.1086 291.032 37.788 291.415 36.4571 291.321H18.3042V308.963C18.4531 310.755 17.9007 312.535 16.7612 313.935C16.2603 314.467 15.6501 314.887 14.9717 315.166C14.2932 315.445 13.5623 315.577 12.8281 315.553C12.0865 315.577 11.3483 315.443 10.6642 315.158C9.98008 314.874 9.36619 314.447 8.86469 313.905C7.75427 312.503 7.21458 310.74 7.35195 308.963V267.778C7.29337 266.474 7.5312 265.174 8.04784 263.974C8.48444 263.016 9.25897 262.25 10.2261 261.817C11.4432 261.321 12.7529 261.086 14.0685 261.128H39.8758C41.2694 261.02 42.6528 261.437 43.7484 262.297C44.1688 262.673 44.5006 263.137 44.7201 263.654C44.9397 264.172 45.0417 264.731 45.0191 265.292C45.0357 265.852 44.9308 266.409 44.7116 266.926C44.4924 267.442 44.164 267.907 43.7484 268.287C42.6484 269.136 41.2654 269.542 39.8758 269.425Z" fill="white" stroke="white" stroke-width="0.5" stroke-miterlimit="10"/>
<path d="M82.0812 308.544L79.5096 301.804H57.5144L54.9427 308.664C54.3179 310.57 53.4539 312.391 52.3711 314.085C51.946 314.585 51.4041 314.974 50.7925 315.22C50.1809 315.465 49.518 315.559 48.8615 315.493C48.1814 315.497 47.5073 315.366 46.8787 315.109C46.2501 314.852 45.6796 314.473 45.2007 313.995C44.7122 313.573 44.3195 313.053 44.0483 312.469C43.7772 311.886 43.6338 311.253 43.6274 310.61C43.6342 309.838 43.7565 309.071 43.9905 308.334C44.2325 307.585 44.6561 306.477 45.2007 305.099L59.0271 270.354C59.4204 269.366 59.9045 268.167 60.4491 266.76C60.9204 265.534 61.5186 264.359 62.2341 263.255C62.868 262.34 63.7066 261.581 64.6847 261.039C65.844 260.419 67.1501 260.119 68.4666 260.17C69.7936 260.109 71.1122 260.409 72.2787 261.039C73.2646 261.569 74.1136 262.317 74.7596 263.225C75.3935 264.168 75.9306 265.172 76.3631 266.22L77.9969 270.354L92.1258 304.89C92.9961 306.701 93.5486 308.646 93.7596 310.64C93.7451 311.283 93.6011 311.916 93.3362 312.502C93.0712 313.088 92.6905 313.616 92.2166 314.055C91.7208 314.546 91.1309 314.934 90.4814 315.197C89.832 315.459 89.1361 315.59 88.4348 315.583C87.6637 315.603 86.8981 315.449 86.1959 315.133C85.6001 314.836 85.0744 314.417 84.6529 313.905C84.118 313.149 83.6714 312.335 83.3217 311.479C82.8376 310.311 82.414 309.352 82.0812 308.544ZM60.3886 293.567H76.5447L68.4061 271.462L60.3886 293.567Z" fill="white" stroke="white" stroke-width="0.5" stroke-miterlimit="10"/>
<path d="M116.511 291.71H112.669V308.903C112.825 310.7 112.284 312.489 111.156 313.905C110.652 314.432 110.041 314.846 109.363 315.12C108.684 315.394 107.955 315.521 107.223 315.493C106.462 315.54 105.701 315.413 104.998 315.123C104.295 314.832 103.669 314.384 103.169 313.815C102.105 312.404 101.589 310.66 101.716 308.903V267.718C101.634 266.811 101.734 265.897 102.009 265.029C102.284 264.16 102.729 263.354 103.32 262.656C104.025 262.071 104.839 261.63 105.717 261.358C106.594 261.085 107.517 260.987 108.433 261.069H126.162C128.265 261.054 130.366 261.164 132.455 261.398C134.085 261.574 135.677 261.998 137.175 262.656C138.869 263.339 140.403 264.358 141.683 265.651C143.004 266.953 144.034 268.514 144.709 270.234C145.389 271.993 145.738 273.861 145.737 275.745C145.911 279.261 144.683 282.703 142.318 285.33C139.461 288.007 135.855 289.771 131.971 290.392C134.087 291.556 135.972 293.088 137.538 294.915C139.304 296.903 140.893 299.037 142.288 301.295C143.506 303.215 144.588 305.217 145.525 307.286C146.113 308.463 146.502 309.728 146.675 311.03C146.67 311.779 146.438 312.509 146.009 313.127C145.553 313.839 144.903 314.41 144.134 314.774C143.291 315.195 142.355 315.401 141.411 315.373C140.339 315.407 139.283 315.114 138.385 314.534C137.528 313.945 136.79 313.204 136.207 312.348C135.602 311.489 134.785 310.201 133.756 308.484L129.369 301.265C128.152 299.148 126.744 297.143 125.164 295.275C124.155 294 122.86 292.974 121.382 292.279C119.809 291.788 118.156 291.595 116.511 291.71ZM122.774 269.216H112.669V283.923H122.501C124.729 283.97 126.954 283.749 129.127 283.264C130.706 282.933 132.143 282.127 133.242 280.957C134.247 279.689 134.752 278.103 134.664 276.494C134.692 275.101 134.291 273.732 133.514 272.57C132.741 271.422 131.633 270.534 130.338 270.024C127.884 269.313 125.327 269.019 122.774 269.156V269.216Z" fill="white" stroke="white" stroke-width="0.5" stroke-miterlimit="10"/>
<path d="M174.358 306.537L165.705 272.421V309.382C165.838 311.029 165.341 312.664 164.314 313.965C163.855 314.471 163.289 314.871 162.656 315.135C162.023 315.399 161.339 315.521 160.653 315.493C159.979 315.516 159.308 315.394 158.687 315.135C158.065 314.877 157.507 314.488 157.053 313.995C156.012 312.688 155.505 311.042 155.631 309.382V267.029C155.52 266.151 155.63 265.259 155.952 264.433C156.274 263.607 156.798 262.873 157.476 262.297C158.986 261.419 160.719 260.993 162.468 261.069H165.857C167.362 260.988 168.869 261.181 170.304 261.638C171.214 261.995 171.943 262.695 172.331 263.585C172.97 265.086 173.476 266.639 173.844 268.227L181.71 297.551L189.546 268.227C189.943 266.647 190.448 265.096 191.059 263.585C191.468 262.699 192.204 262.002 193.116 261.638C194.55 261.175 196.058 260.982 197.564 261.069H200.952C202.701 260.993 204.435 261.419 205.944 262.297C206.617 262.876 207.135 263.612 207.452 264.437C207.768 265.263 207.874 266.153 207.76 267.029V309.382C207.886 311.023 207.402 312.653 206.398 313.965C205.927 314.473 205.351 314.872 204.708 315.136C204.065 315.4 203.372 315.522 202.677 315.493C202.005 315.512 201.337 315.385 200.721 315.121C200.104 314.857 199.553 314.463 199.107 313.965C198.079 312.664 197.582 311.029 197.715 309.382V272.421L189.032 306.537C188.487 308.723 188.003 310.371 187.67 311.389C187.286 312.546 186.597 313.58 185.674 314.384C184.559 315.282 183.144 315.731 181.71 315.643C180.576 315.679 179.454 315.399 178.473 314.834C177.612 314.318 176.894 313.597 176.385 312.737C175.868 311.794 175.482 310.787 175.236 309.742L174.358 306.537Z" fill="white" stroke="white" stroke-width="0.5" stroke-miterlimit="10"/>
<path d="M22.9331 367.401H11.9506C11.3436 367.461 10.7307 367.399 10.1485 367.218C9.56631 367.038 9.02676 366.744 8.5621 366.353C7.79055 365.398 7.42189 364.185 7.53341 362.968V336.25C7.41542 335.032 7.7848 333.817 8.5621 332.865C9.51063 332.095 10.7294 331.728 11.9506 331.847H23.5684C25.0667 331.827 26.5643 331.927 28.0462 332.147C29.2435 332.342 30.3929 332.759 31.4347 333.375C32.2796 333.879 33.0358 334.516 33.6735 335.262C34.3212 336.013 34.8237 336.876 35.156 337.808C35.526 338.763 35.7108 339.779 35.7006 340.803C35.7237 342.496 35.2151 344.155 34.245 345.55C33.2749 346.945 31.8912 348.008 30.285 348.591C32.3051 348.99 34.1198 350.078 35.4134 351.665C36.7069 353.252 37.3974 355.238 37.3646 357.277C37.3881 359.184 36.8521 361.057 35.8216 362.668C34.828 364.223 33.3833 365.445 31.6768 366.173C30.4663 366.668 29.1944 367 27.8949 367.161C26.2476 367.343 24.5905 367.423 22.9331 367.401ZM14.8248 337.238V346.434H21.4809C22.9008 346.48 24.3194 346.308 25.6863 345.925C26.6634 345.582 27.4737 344.887 27.9554 343.978C28.3592 343.286 28.5682 342.5 28.5605 341.701C28.6746 340.967 28.5481 340.217 28.1996 339.559C27.8512 338.901 27.299 338.371 26.6242 338.047C24.7408 337.35 22.7325 337.044 20.7245 337.149L14.8248 337.238ZM22.3885 351.616H14.8248V362.009H22.6306C27.5318 362.009 30.0127 360.272 30.0127 356.738C30.0761 355.976 29.9295 355.211 29.5885 354.526C29.2475 353.84 28.7249 353.259 28.0764 352.844C26.3319 351.921 24.3628 351.496 22.3885 351.616Z" fill="white"/>
<path d="M64.7452 363.357L63.0207 359.014H48.4379L46.7134 363.597C46.2964 364.863 45.7168 366.071 44.9888 367.191C44.7077 367.524 44.348 367.783 43.9416 367.945C43.5352 368.107 43.0947 368.167 42.6592 368.12C42.21 368.121 41.765 368.034 41.3497 367.864C40.9344 367.694 40.5569 367.445 40.2389 367.131C39.9106 366.853 39.6463 366.509 39.4636 366.122C39.281 365.734 39.1842 365.313 39.1799 364.885C39.1885 364.367 39.27 363.853 39.422 363.357C39.6035 362.858 39.8758 362.139 40.2389 361.201L49.3153 338.107C49.5573 337.448 49.8901 336.669 50.2532 335.711C50.5598 334.902 50.9555 334.128 51.4331 333.405C51.8629 332.795 52.4201 332.284 53.0669 331.907C53.8438 331.515 54.7064 331.32 55.578 331.338C56.4599 331.314 57.3338 331.509 58.1194 331.907C58.7708 332.265 59.33 332.767 59.7532 333.375C60.1825 333.98 60.5379 334.633 60.8121 335.322C61.1146 336.01 61.4777 336.909 61.9013 338.077L71.2803 361.021C71.883 362.211 72.2623 363.5 72.3997 364.825C72.3867 365.255 72.2862 365.679 72.1043 366.07C71.9224 366.461 71.6627 366.812 71.3408 367.101C71.0157 367.433 70.6248 367.695 70.1926 367.87C69.7605 368.046 69.2965 368.131 68.8296 368.12C68.3279 368.141 67.8289 368.038 67.3774 367.82C66.9716 367.626 66.6188 367.339 66.3487 366.982C65.9733 366.497 65.6678 365.962 65.4411 365.394L64.7452 363.357ZM50.344 353.503H61.0844L55.6688 338.826L50.344 353.503Z" fill="white"/>
<path d="M105.135 356.708C105.17 358.765 104.591 360.786 103.471 362.519C102.268 364.301 100.564 365.696 98.5701 366.532C96.1468 367.569 93.5242 368.07 90.8853 368C87.8361 368.116 84.8099 367.434 82.1115 366.023C80.4958 365.082 79.1356 363.766 78.1481 362.189C77.1924 360.821 76.6566 359.209 76.6051 357.546C76.5991 357.131 76.6762 356.719 76.832 356.333C76.9877 355.948 77.2191 355.597 77.5127 355.3C77.8146 354.985 78.182 354.739 78.5895 354.579C78.9969 354.418 79.4348 354.348 79.8726 354.371C80.5879 354.353 81.2823 354.611 81.8089 355.09C82.4318 355.69 82.8989 356.43 83.1703 357.247C83.5347 358.303 84.0328 359.31 84.6528 360.242C85.2363 360.985 85.9807 361.589 86.8312 362.009C88.0296 362.535 89.3338 362.781 90.6433 362.728C92.503 362.818 94.3412 362.302 95.8774 361.261C96.4991 360.849 97.0091 360.292 97.3625 359.639C97.716 358.986 97.9021 358.257 97.9045 357.517C97.9407 356.97 97.8626 356.422 97.6752 355.907C97.4878 355.391 97.1951 354.92 96.8153 354.521C96.0198 353.756 95.057 353.182 94.0016 352.844C92.4827 352.35 90.9373 351.94 89.3726 351.616C87.1525 351.12 84.9847 350.418 82.8981 349.519C81.2545 348.79 79.8274 347.656 78.7532 346.224C77.7067 344.711 77.1766 342.906 77.2404 341.072C77.205 339.211 77.7664 337.386 78.8439 335.861C80.022 334.258 81.6542 333.039 83.5334 332.356C85.8326 331.496 88.2767 331.079 90.734 331.128C92.6718 331.089 94.6031 331.362 96.4522 331.937C97.9049 332.409 99.2584 333.14 100.446 334.093C101.437 334.909 102.232 335.932 102.775 337.089C103.277 338.009 103.538 339.039 103.532 340.084C103.522 340.951 103.188 341.783 102.594 342.42C102.31 342.74 101.961 342.996 101.57 343.171C101.179 343.347 100.754 343.438 100.325 343.439C99.9809 343.464 99.6352 343.422 99.308 343.314C98.9808 343.206 98.6785 343.034 98.4188 342.81C97.8474 342.214 97.3682 341.538 96.9968 340.803C96.4439 339.644 95.6379 338.621 94.6369 337.808C93.349 336.943 91.8007 336.541 90.25 336.669C88.6357 336.603 87.04 337.032 85.6815 337.897C85.1597 338.209 84.7272 338.648 84.4253 339.173C84.1235 339.697 83.9622 340.289 83.957 340.893C83.9437 341.561 84.1567 342.215 84.5621 342.75C85.0047 343.296 85.549 343.754 86.1656 344.098C86.8329 344.45 87.5318 344.741 88.2532 344.966L91.7325 345.895C93.5964 346.297 95.4351 346.807 97.2388 347.422C98.7208 347.916 100.126 348.612 101.414 349.489C102.545 350.255 103.47 351.283 104.107 352.484C104.777 353.794 105.129 355.24 105.135 356.708Z" fill="white"/>
<path d="M118.659 335.591V348.051L132.939 333.315C133.473 332.733 134.061 332.201 134.694 331.727C135.262 331.369 135.927 331.191 136.6 331.218C137.065 331.193 137.531 331.263 137.968 331.422C138.405 331.582 138.804 331.829 139.142 332.147C139.45 332.429 139.695 332.772 139.861 333.154C140.028 333.536 140.113 333.947 140.11 334.363C140.054 334.945 139.88 335.51 139.599 336.025C139.319 336.539 138.937 336.993 138.476 337.358L129.611 345.655L139.807 360.122C140.429 360.952 140.976 361.834 141.441 362.758C141.788 363.437 141.974 364.184 141.986 364.945C141.982 365.335 141.897 365.72 141.736 366.076C141.574 366.432 141.34 366.75 141.048 367.012C140.332 367.612 139.413 367.922 138.476 367.88C137.604 367.92 136.741 367.701 135.995 367.251C135.341 366.792 134.794 366.2 134.392 365.514C133.938 364.825 133.545 364.166 133.212 363.597L124.589 350.478L118.538 356.139V363.477C118.628 364.674 118.261 365.86 117.51 366.802C117.168 367.158 116.754 367.438 116.295 367.624C115.836 367.809 115.343 367.897 114.847 367.88C114.219 367.881 113.603 367.716 113.062 367.401C112.512 367.081 112.054 366.627 111.731 366.083C111.501 365.593 111.368 365.065 111.338 364.525C111.338 363.896 111.338 363.058 111.338 361.92V335.471C111.249 334.303 111.593 333.142 112.306 332.206C112.629 331.834 113.035 331.541 113.491 331.349C113.948 331.157 114.443 331.071 114.938 331.098C115.434 331.08 115.928 331.166 116.387 331.352C116.846 331.538 117.26 331.819 117.6 332.176C118.387 333.136 118.767 334.36 118.659 335.591Z" fill="white"/>
<path d="M172.15 337.388H155.752V346.134H170.879C171.766 346.07 172.647 346.325 173.36 346.853C173.629 347.101 173.84 347.403 173.981 347.739C174.122 348.075 174.189 348.437 174.177 348.8C174.189 349.168 174.123 349.535 173.982 349.875C173.841 350.216 173.629 350.523 173.36 350.777C172.667 351.348 171.777 351.627 170.879 351.556H155.752V361.68H172.694C173.63 361.605 174.559 361.884 175.296 362.459C175.58 362.728 175.803 363.054 175.949 363.416C176.095 363.778 176.162 364.166 176.143 364.555C176.161 364.936 176.094 365.315 175.948 365.667C175.801 366.019 175.579 366.335 175.296 366.592C174.563 367.178 173.634 367.467 172.694 367.401H152.938C152.326 367.458 151.709 367.395 151.123 367.215C150.536 367.035 149.991 366.742 149.519 366.353C148.731 365.406 148.351 364.19 148.46 362.968V336.25C148.422 335.376 148.587 334.505 148.944 333.704C149.221 333.063 149.743 332.557 150.396 332.296C151.201 331.967 152.068 331.814 152.938 331.847H172.15C173.071 331.772 173.988 332.039 174.721 332.596C175.003 332.848 175.226 333.158 175.372 333.505C175.519 333.852 175.586 334.227 175.568 334.603C175.586 334.978 175.519 335.353 175.372 335.7C175.226 336.047 175.003 336.358 174.721 336.609C173.998 337.188 173.076 337.467 172.15 337.388Z" fill="white"/>
<path d="M205.279 337.778H197.322V363.597C197.42 364.79 197.064 365.976 196.323 366.922C195.993 367.276 195.59 367.556 195.141 367.742C194.692 367.928 194.208 368.016 193.721 368C193.23 368.02 192.74 367.934 192.285 367.748C191.831 367.562 191.423 367.28 191.089 366.922C190.343 365.977 189.977 364.793 190.061 363.597V337.778H182.134C181.138 337.849 180.149 337.562 179.35 336.969C179.066 336.685 178.842 336.349 178.692 335.978C178.541 335.608 178.467 335.212 178.473 334.812C178.45 334.401 178.523 333.99 178.686 333.611C178.848 333.232 179.096 332.895 179.411 332.626C180.192 332.045 181.161 331.768 182.134 331.847H205.279C206.275 331.77 207.266 332.058 208.062 332.656C208.373 332.922 208.618 333.254 208.781 333.628C208.943 334.001 209.018 334.406 209 334.812C209.012 335.218 208.934 335.621 208.772 335.993C208.61 336.366 208.368 336.699 208.062 336.969C207.263 337.562 206.275 337.849 205.279 337.778Z" fill="white"/>
</g>
<defs>
<clipPath id="clip0_173_133">
<rect width="209" height="368" fill="white"/>
</clipPath>
</defs>
</svg>
